<?xml version="1.0" encoding="UTF-8"?><svg id="Layer_1" xmlns="http://www.w3.org/2000/svg" viewBox="0 0 250 100"><defs><style>.cls-1{fill:#fff;}.cls-2,.cls-3{fill:none;}.cls-3{stroke:#fff;stroke-miterlimit:10;stroke-width:4px;}</style></defs><rect class="cls-2" width="250" height="100"/><path class="cls-1" d="M21.69,49.06c1.73-.19,3.41-.17,5.04,.07,1.63,.24,3.07,.74,4.32,1.49,1.25,.75,2.25,1.78,3,3.1,.75,1.31,1.13,2.94,1.13,4.9,0,1.63-.42,3.3-1.25,4.99-.83,1.7-1.97,3.25-3.41,4.66-1.44,1.41-3.14,2.59-5.09,3.55-1.95,.96-4.08,1.55-6.38,1.78-.64,2.05-1.25,4.02-1.82,5.9s-1.02,3.38-1.34,4.46c-.19,.74-.32,1.49-.38,2.26-.06,.77,.02,1.31,.24,1.63-.32,.13-.71,.15-1.18,.07-.46-.08-.92-.28-1.37-.6-.45-.32-.84-.76-1.18-1.32-.34-.56-.52-1.24-.55-2.04-.06-1.34,.07-2.67,.41-3.98,.34-1.31,.76-2.74,1.27-4.27,.19-.54,.46-1.3,.79-2.26,.34-.96,.7-2.02,1.1-3.17,.4-1.15,.8-2.33,1.2-3.53,.4-1.2,.78-2.3,1.13-3.31,.35-1.01,.64-1.84,.86-2.5,.22-.66,.35-1.03,.38-1.13,.22-.67,.36-1.22,.41-1.66,.05-.43,.06-.79,.05-1.08-.02-.29-.06-.51-.14-.67-.08-.16-.15-.29-.22-.38,.29-.13,.62-.19,1.01-.19s.77,.06,1.15,.17c.38,.11,.74,.27,1.06,.48,.32,.21,.58,.44,.77,.7,.35,.54,.48,1.25,.38,2.11-.1,.86-.37,2.11-.82,3.74-.03,.1-.11,.34-.24,.74-.13,.4-.29,.91-.48,1.54s-.41,1.3-.65,2.04c-.24,.74-.47,1.49-.7,2.26,3.33-.74,5.88-1.93,7.66-3.58,1.78-1.65,2.74-3.86,2.9-6.65,.13-1.86-.44-3.38-1.7-4.58-1.26-1.2-3.34-1.74-6.22-1.61-1.73,.1-3.23,.51-4.51,1.25-1.28,.74-2.24,1.57-2.88,2.5-1.44,2.05-1.7,3.71-.77,4.99-.93,.16-1.71,.04-2.35-.36-.64-.4-1.1-.96-1.39-1.68-.29-.72-.38-1.54-.29-2.47,.1-.93,.43-1.84,1.01-2.74,1.18-1.79,2.68-3.13,4.49-4.01,1.81-.88,3.66-1.42,5.54-1.61Z"/><path class="cls-1" d="M55.53,69.6c.13-.32,.3-.58,.53-.79,.22-.21,.45-.36,.67-.46,.22-.1,.4-.12,.53-.07,.13,.05,.14,.18,.05,.41-.06,.1-.18,.35-.34,.77-.16,.42-.36,.94-.6,1.56-.24,.62-.53,1.34-.86,2.14-.34,.8-.71,1.63-1.13,2.5-.03,.07-.12,.22-.26,.48-.14,.26-.3,.55-.46,.89-.16,.34-.34,.67-.53,1.01-.19,.34-.35,.62-.48,.84-.42,.67-.9,1.34-1.44,1.99-.54,.66-1.17,1.22-1.87,1.7-.19,.13-.44,.28-.74,.46-.3,.18-.62,.34-.96,.48-.34,.14-.68,.26-1.03,.34-.35,.08-.69,.09-1.01,.02-.99-.19-1.71-.66-2.16-1.39-.45-.74-.62-1.63-.53-2.69,0-.06,.04-.31,.12-.74,.08-.43,.17-.78,.26-1.03-.38,.74-.82,1.44-1.3,2.11-.48,.67-1,1.27-1.56,1.8-.56,.53-1.14,.96-1.75,1.3-.61,.34-1.22,.55-1.82,.65-.51,.06-1.05,.03-1.61-.1-.56-.13-1.08-.4-1.56-.82s-.89-1-1.22-1.75c-.34-.75-.54-1.7-.6-2.86-.06-1.38,.03-2.58,.29-3.62,.26-1.04,.61-2.06,1.06-3.05,.29-.64,.6-1.32,.94-2.04s.7-1.42,1.1-2.11c.4-.69,.82-1.34,1.27-1.97,.45-.62,.93-1.14,1.44-1.56,.96-.8,1.94-1.37,2.95-1.7s1.96-.47,2.86-.41c.9,.06,1.69,.31,2.38,.74,.69,.43,1.19,1.02,1.51,1.75l.34,.72c.26-.48,.5-.9,.72-1.25,.22-.35,.45-.66,.67-.91,.64-.64,1.34-.98,2.11-1.01,.77-.03,1.46,.06,2.06,.26,.61,.21,1.05,.46,1.32,.74,.27,.29,.25,.43-.07,.43-.29,0-.6,.21-.94,.62-.34,.42-.65,.9-.94,1.44-.29,.54-.55,1.09-.79,1.63-.24,.54-.42,.94-.55,1.2-1.25,2.69-2.14,4.7-2.66,6.05-.53,1.34-.86,2.22-.98,2.64-.1,.19-.19,.5-.29,.94-.1,.43-.15,.86-.17,1.27-.02,.42,.03,.76,.14,1.03,.11,.27,.33,.36,.65,.26,.29-.13,.58-.3,.89-.53,.3-.22,.62-.48,.94-.77,.32-.32,.64-.69,.96-1.1,.32-.42,.6-.82,.84-1.2,.24-.38,.45-.73,.62-1.03,.18-.3,.3-.5,.36-.6,.26-.45,.48-.86,.67-1.25s.37-.77,.53-1.15c.26-.58,.52-1.15,.79-1.73,.27-.58,.49-1.07,.65-1.49Zm-15.02,9.41c.26-.26,.59-.66,1.01-1.2,.42-.54,.86-1.2,1.34-1.97s.97-1.62,1.46-2.54c.5-.93,.94-1.92,1.32-2.98,.29-.77,.5-1.4,.62-1.9,.13-.5,.22-.9,.26-1.2,.05-.3,.06-.54,.02-.72-.03-.18-.06-.36-.1-.55-.13-.32-.35-.61-.67-.86-.32-.26-.74-.37-1.25-.34-.64,.06-1.42,.5-2.35,1.32-.93,.82-1.81,2.04-2.64,3.67-.96,1.82-1.64,3.39-2.04,4.7-.4,1.31-.55,2.53-.46,3.65,.06,.83,.23,1.38,.5,1.63,.27,.26,.52,.42,.74,.48,.19,.06,.47,.02,.84-.14,.37-.16,.82-.51,1.37-1.06Z"/><path class="cls-1" d="M70.07,69.65c.13-.32,.31-.58,.55-.79,.24-.21,.46-.36,.67-.46,.21-.1,.37-.12,.48-.07,.11,.05,.12,.18,.02,.41-.06,.16-.22,.6-.46,1.32-.24,.72-.6,1.67-1.08,2.86-.96,2.37-2.1,4.32-3.43,5.86-1.33,1.54-2.9,2.88-4.73,4.03-1.02,.64-2.02,1-3,1.08-.98,.08-1.83,.09-2.57,.02-1.06-.13-1.91-.55-2.57-1.27-.66-.72-.97-1.7-.94-2.95,0-.51,.13-.98,.38-1.42,.26-.43,.56-.81,.91-1.13,.22-.19,.5-.35,.84-.48s.68-.22,1.03-.26c.35-.05,.66-.03,.94,.05,.27,.08,.44,.22,.5,.41-.26,.06-.46,.22-.6,.48s-.23,.51-.26,.77c-.03,.22-.03,.49,0,.79,.03,.3,.12,.59,.26,.86,.14,.27,.37,.49,.67,.65,.3,.16,.71,.19,1.22,.1,.54-.06,.94-.33,1.18-.79,.24-.46,.39-.89,.46-1.27,.13-.83,.11-1.67-.05-2.52-.16-.85-.37-1.7-.62-2.54-.26-.85-.5-1.7-.74-2.57-.24-.86-.38-1.71-.41-2.54,0-.54,0-1,.02-1.37,.02-.37,.1-.78,.26-1.22-.26,.35-.51,.78-.77,1.27-.26,.5-.53,1.02-.82,1.56-.26,.48-.53,1.06-.82,1.75-.29,.69-.62,1.5-1.01,2.42l-1.39-.14c.03-.1,.06-.18,.1-.26,.03-.08,.06-.15,.1-.22,.45-1.25,.98-2.54,1.61-3.89,.62-1.34,1.26-2.51,1.9-3.5,.74-1.15,1.66-2.02,2.78-2.59,1.12-.58,2.16-.93,3.12-1.06,.99-.13,1.86-.18,2.59-.17,.74,.02,1.38,.33,1.92,.94,.16,.19,.27,.46,.34,.79,.06,.34,.1,.64,.1,.91s-.03,.48-.1,.62c-.06,.14-.14,.14-.24-.02-.1-.13-.28-.2-.55-.22-.27-.02-.59,.02-.96,.12-.37,.1-.74,.23-1.13,.41-.38,.18-.72,.38-1.01,.6-.26,.22-.5,.48-.72,.77-.22,.29-.39,.7-.5,1.22-.11,.53-.15,1.22-.12,2.06,.03,.85,.18,1.96,.43,3.34,.1,.45,.22,.9,.38,1.37s.3,.96,.41,1.49c.11,.53,.17,1.08,.17,1.66s-.13,1.18-.38,1.82c.38-.42,.72-.78,1.01-1.08,.29-.3,.59-.66,.91-1.08,.32-.42,.68-.96,1.08-1.63,.4-.67,.9-1.6,1.51-2.78,.26-.54,.46-1,.6-1.37s.31-.74,.5-1.13Z"/><path class="cls-1" d="M84.61,69.65c.13-.32,.31-.58,.55-.79,.24-.21,.46-.36,.67-.46,.21-.1,.37-.12,.48-.07,.11,.05,.12,.18,.02,.41-.06,.16-.22,.6-.46,1.32-.24,.72-.6,1.67-1.08,2.86-.96,2.37-2.1,4.32-3.43,5.86-1.33,1.54-2.9,2.88-4.73,4.03-1.02,.64-2.02,1-3,1.08-.98,.08-1.83,.09-2.57,.02-1.06-.13-1.91-.55-2.57-1.27-.66-.72-.97-1.7-.94-2.95,0-.51,.13-.98,.38-1.42,.26-.43,.56-.81,.91-1.13,.22-.19,.5-.35,.84-.48s.68-.22,1.03-.26c.35-.05,.66-.03,.94,.05,.27,.08,.44,.22,.5,.41-.26,.06-.46,.22-.6,.48s-.23,.51-.26,.77c-.03,.22-.03,.49,0,.79,.03,.3,.12,.59,.26,.86,.14,.27,.37,.49,.67,.65,.3,.16,.71,.19,1.22,.1,.54-.06,.94-.33,1.18-.79,.24-.46,.39-.89,.46-1.27,.13-.83,.11-1.67-.05-2.52-.16-.85-.37-1.7-.62-2.54-.26-.85-.5-1.7-.74-2.57-.24-.86-.38-1.71-.41-2.54,0-.54,0-1,.02-1.37,.02-.37,.1-.78,.26-1.22-.26,.35-.51,.78-.77,1.27-.26,.5-.53,1.02-.82,1.56-.26,.48-.53,1.06-.82,1.75-.29,.69-.62,1.5-1.01,2.42l-1.39-.14c.03-.1,.06-.18,.1-.26,.03-.08,.06-.15,.1-.22,.45-1.25,.98-2.54,1.61-3.89,.62-1.34,1.26-2.51,1.9-3.5,.74-1.15,1.66-2.02,2.78-2.59,1.12-.58,2.16-.93,3.12-1.06,.99-.13,1.86-.18,2.59-.17,.74,.02,1.38,.33,1.92,.94,.16,.19,.27,.46,.34,.79,.06,.34,.1,.64,.1,.91s-.03,.48-.1,.62c-.06,.14-.14,.14-.24-.02-.1-.13-.28-.2-.55-.22-.27-.02-.59,.02-.96,.12-.37,.1-.74,.23-1.13,.41-.38,.18-.72,.38-1.01,.6-.26,.22-.5,.48-.72,.77-.22,.29-.39,.7-.5,1.22-.11,.53-.15,1.22-.12,2.06,.03,.85,.18,1.96,.43,3.34,.1,.45,.22,.9,.38,1.37s.3,.96,.41,1.49c.11,.53,.17,1.08,.17,1.66s-.13,1.18-.38,1.82c.38-.42,.72-.78,1.01-1.08,.29-.3,.59-.66,.91-1.08,.32-.42,.68-.96,1.08-1.63,.4-.67,.9-1.6,1.51-2.78,.26-.54,.46-1,.6-1.37s.31-.74,.5-1.13Z"/><path class="cls-1" d="M94.89,69.6c.13-.32,.3-.58,.53-.77,.22-.19,.45-.33,.67-.41,.22-.08,.4-.08,.53,0,.13,.08,.14,.23,.05,.46-.06,.22-.38,1-.94,2.33-.56,1.33-1.27,2.87-2.14,4.63-.29,.61-.62,1.22-.98,1.82-.37,.61-.74,1.22-1.13,1.82-.38,.58-.78,1.14-1.2,1.68-.42,.54-.88,1.02-1.39,1.42-.51,.4-1.1,.73-1.75,.98-.66,.26-1.4,.38-2.23,.38-.54,0-1.15-.18-1.82-.55-.67-.37-1.09-.94-1.25-1.7-.16-.8-.17-1.76-.02-2.88,.14-1.12,.38-2.24,.7-3.36,.32-1.12,.66-2.19,1.03-3.22,.37-1.02,.68-1.87,.94-2.54,.29-.74,.59-1.48,.91-2.23,.32-.75,.64-1.46,.96-2.14,.32-.67,.62-1.27,.89-1.8,.27-.53,.52-.94,.74-1.22,.54-.67,1.21-1.11,1.99-1.32,.78-.21,1.5-.27,2.16-.19,.66,.08,1.15,.24,1.49,.48,.34,.24,.34,.46,.02,.65-.35,.19-.72,.61-1.1,1.25-.38,.64-.9,1.57-1.54,2.78-.54,1.06-1.1,2.25-1.68,3.58-.58,1.33-1.1,2.65-1.56,3.96-.46,1.31-.84,2.55-1.13,3.72s-.43,2.14-.43,2.9c0,.48,.13,.76,.38,.84,.26,.08,.57,.06,.94-.07,.37-.13,.73-.34,1.08-.62,.35-.29,.62-.56,.82-.82,.93-1.12,1.7-2.22,2.3-3.31,.61-1.09,1.18-2.18,1.73-3.26,.29-.61,.56-1.21,.82-1.8,.26-.59,.46-1.08,.62-1.46Z"/><path class="cls-1" d="M113.89,69.65c.06-.19,.21-.38,.43-.55,.22-.18,.45-.3,.67-.38,.22-.08,.4-.09,.53-.02,.13,.06,.14,.24,.05,.53-.03,.1-.1,.26-.19,.5-.1,.24-.2,.5-.31,.79-.11,.29-.23,.58-.36,.89-.13,.3-.26,.57-.38,.79-.45,.77-.86,1.46-1.25,2.06-.38,.61-.83,1.13-1.34,1.56-.51,.43-1.14,.79-1.9,1.06-.75,.27-1.7,.46-2.86,.55-.48,.99-.98,1.86-1.49,2.62-.51,.75-1.14,1.4-1.87,1.94-.67,.48-1.4,.9-2.18,1.25-.78,.35-1.51,.56-2.18,.62-1.6,.19-2.87,.1-3.82-.26-.94-.37-1.66-.91-2.14-1.63s-.76-1.54-.84-2.47c-.08-.93-.06-1.86,.07-2.78,.13-.86,.38-1.96,.77-3.29,.38-1.33,.85-2.57,1.39-3.72,.58-1.22,1.15-2.18,1.73-2.9,.58-.72,1.17-1.27,1.78-1.66,.06-.06,.14-.1,.22-.12,.08-.02,.15-.06,.22-.12,.32-.64,.7-1.21,1.15-1.7,.45-.5,.9-.92,1.37-1.27,.46-.35,.92-.63,1.37-.84,.45-.21,.83-.34,1.15-.41,.74-.13,1.51-.18,2.33-.17,.82,.02,1.56,.2,2.23,.55,.67,.35,1.23,.91,1.68,1.68,.45,.77,.67,1.81,.67,3.12,0,1.38-.23,2.91-.7,4.61-.46,1.7-1.11,3.41-1.94,5.14,.86-.03,1.63-.29,2.3-.79,.67-.5,1.26-1.07,1.78-1.73,.51-.66,.93-1.3,1.25-1.94,.32-.64,.53-1.14,.62-1.49Zm-16.46,6.86c-.26,1.22-.25,2.2,.02,2.95,.27,.75,.7,1.18,1.3,1.3,.59,.11,1.3-.14,2.14-.74,.83-.61,1.68-1.68,2.54-3.22-1.34-.51-2.41-1.26-3.19-2.26-.78-.99-1.26-2.05-1.42-3.17-.06,.13-.14,.36-.24,.7-.1,.34-.19,.7-.29,1.08-.1,.38-.2,.75-.31,1.1-.11,.35-.18,.59-.22,.72-.06,.35-.13,.66-.19,.91-.06,.26-.11,.46-.14,.62Zm8.83-7.39c.45-1.82,.58-3.09,.38-3.79-.19-.7-.77-1.06-1.73-1.06-.35,0-.7,.07-1.06,.22-.35,.14-.69,.34-1.01,.6,.19,.26,.34,.51,.43,.77,.1,.26,.14,.43,.14,.53-.26-.06-.56-.09-.91-.07-.35,.02-.7,.17-1.06,.46-.1,.16-.26,.54-.48,1.15-.22,.61-.33,1.31-.31,2.11,.02,.8,.26,1.66,.74,2.57s1.39,1.75,2.74,2.52c.38-.74,.77-1.64,1.15-2.71,.38-1.07,.7-2.17,.96-3.29Z"/><path class="cls-1" d="M130.65,78.53c-.32,.61-.69,1.22-1.1,1.85s-.87,1.19-1.37,1.7c-.5,.51-1.04,.94-1.63,1.3-.59,.35-1.24,.54-1.94,.58-.58,.06-1.16-.13-1.75-.58-.59-.45-1-1.04-1.22-1.78-.06-.26-.17-.74-.31-1.44s-.18-1.44-.12-2.21c.03-.58,.1-1.17,.19-1.78,.1-.61,.21-1.17,.34-1.68s.24-.96,.34-1.34c.1-.38,.18-.66,.24-.82,.1-.22,.22-.54,.38-.94s.34-.84,.53-1.32l.58-1.44c.19-.48,.37-.91,.53-1.3-.67,.67-1.37,1.5-2.09,2.5-.72,.99-1.43,2.06-2.14,3.19-.7,1.14-1.38,2.3-2.04,3.48-.66,1.18-1.24,2.3-1.75,3.36-.16,.38-.34,.79-.53,1.22-.19,.43-.38,.84-.58,1.22-.19,.38-.36,.71-.5,.98-.14,.27-.26,.42-.36,.46-.1,.06-.3,.07-.6,.02-.3-.05-.63-.14-.98-.29-.35-.14-.67-.34-.96-.6-.29-.25-.46-.58-.53-.96-.06-.42-.06-.87,0-1.37,.06-.5,.18-1.26,.34-2.28,.06-.38,.18-.95,.36-1.7,.18-.75,.36-1.51,.55-2.28,.99-3.46,1.86-6.1,2.62-7.92,.75-1.82,1.38-3.06,1.9-3.7,.51-.7,1.16-1.15,1.94-1.34,.78-.19,1.53-.26,2.23-.19,.7,.06,1.26,.22,1.68,.46,.42,.24,.51,.46,.29,.65-.74,.61-1.4,1.4-1.99,2.38-.59,.98-1.14,2.03-1.63,3.17-.5,1.14-.94,2.27-1.34,3.41-.4,1.14-.78,2.18-1.13,3.14,.51-.86,1.1-1.78,1.78-2.74,1.34-1.76,2.51-3.27,3.5-4.54,.99-1.26,1.89-2.28,2.69-3.05,.22-.22,.49-.47,.79-.74,.3-.27,.62-.54,.96-.79,.34-.26,.69-.48,1.06-.67s.73-.32,1.08-.38c.45-.1,.78-.08,.98,.05,.21,.13,.47,.37,.79,.72,.16,.16,.29,.31,.38,.46,.1,.14,.13,.31,.1,.5-.03,.19-.13,.45-.29,.77-.16,.32-.4,.74-.72,1.25-.74,1.06-1.41,2.34-2.02,3.84-.16,.38-.34,.9-.53,1.56-.19,.66-.39,1.34-.6,2.06-.21,.72-.39,1.42-.55,2.11-.16,.69-.26,1.27-.29,1.75-.06,.77-.1,1.43-.12,1.99-.02,.56,0,1,.07,1.32,.06,.19,.14,.37,.22,.53,.08,.16,.2,.22,.36,.19,.26-.1,.58-.35,.98-.77,.4-.42,.84-1.02,1.32-1.82,.22-.35,.47-.59,.74-.72,.27-.13,.51-.16,.72-.1,.21,.06,.34,.22,.38,.46s-.02,.55-.22,.94Z"/><path class="cls-1" d="M169.81,67.97c.06,0,.14,.06,.22,.17,.08,.11,.07,.31-.02,.6-.13,.45-.25,.78-.36,1.01-.11,.22-.26,.56-.46,1.01-.29,.64-.64,1.48-1.06,2.52-.42,1.04-.95,2.16-1.61,3.36-.66,1.2-1.46,2.45-2.4,3.74-.94,1.3-2.07,2.52-3.38,3.67-1.22,1.06-2.62,1.96-4.22,2.71-1.6,.75-3.21,1.19-4.82,1.32-1.62,.13-3.14-.11-4.58-.72-1.44-.61-2.61-1.73-3.5-3.36-.45-.83-.78-1.81-.98-2.93s-.31-2.46-.31-4.03c0-2.11,.3-4.15,.91-6.12,.61-1.97,1.41-4.06,2.4-6.26,1.02-2.02,2.16-3.98,3.41-5.9,1.25-1.92,2.69-3.71,4.32-5.38,1.34-1.34,2.64-2.37,3.89-3.07,1.25-.7,2.46-1.12,3.65-1.25,1.82-.19,3.39-.02,4.7,.5,1.31,.53,2.27,1.7,2.88,3.53,.06,.19,.14,.57,.24,1.13,.1,.56,.14,1.22,.12,1.97-.02,.75-.12,1.54-.31,2.38-.19,.83-.56,1.62-1.1,2.35-.42,.54-.86,.96-1.34,1.25-.48,.29-.95,.46-1.42,.53-.46,.06-.92,.04-1.37-.07-.45-.11-.83-.28-1.15-.5-.16-.13-.23-.25-.22-.36,.02-.11,.07-.22,.17-.31,.1-.1,.21-.18,.34-.24,.13-.06,.24-.11,.34-.14,.16-.03,.42-.23,.79-.6,.37-.37,.71-1.03,1.03-1.99,.74-2.21,.61-3.78-.38-4.7-.51-.45-1.38-.46-2.59-.05-1.22,.42-2.51,1.41-3.89,2.98-.51,.58-1,1.18-1.46,1.82-.46,.64-.94,1.38-1.44,2.23-.5,.85-1.02,1.84-1.56,2.98-.54,1.14-1.15,2.47-1.82,4.01-.71,1.54-1.3,3.24-1.78,5.11s-.72,3.58-.72,5.11c0,.8,.11,1.55,.34,2.26,.22,.7,.53,1.3,.91,1.8,.38,.5,.85,.87,1.39,1.13,.54,.26,1.15,.34,1.82,.24,1.15-.16,2.23-.48,3.24-.96,1.01-.48,1.92-1.02,2.74-1.63,.82-.61,1.52-1.21,2.11-1.8,.59-.59,1.05-1.08,1.37-1.46,.42-.51,.81-1.03,1.18-1.56,.37-.53,.75-1.1,1.15-1.7,.4-.61,.82-1.29,1.27-2.04,.45-.75,.96-1.62,1.54-2.62,.67-1.09,1.28-1.63,1.82-1.63Z"/><path class="cls-1" d="M189.16,69.6c.13-.32,.3-.58,.53-.79,.22-.21,.45-.36,.67-.46,.22-.1,.4-.12,.53-.07,.13,.05,.14,.18,.05,.41-.06,.1-.18,.35-.34,.77-.16,.42-.36,.94-.6,1.56s-.53,1.34-.86,2.14-.71,1.63-1.13,2.5c-.03,.07-.12,.22-.26,.48-.14,.26-.3,.55-.46,.89-.16,.34-.34,.67-.53,1.01-.19,.34-.35,.62-.48,.84-.42,.67-.9,1.34-1.44,1.99-.54,.66-1.17,1.22-1.87,1.7-.19,.13-.44,.28-.74,.46-.3,.18-.62,.34-.96,.48-.34,.14-.68,.26-1.03,.34-.35,.08-.69,.09-1.01,.02-.99-.19-1.71-.66-2.16-1.39-.45-.74-.62-1.63-.53-2.69,0-.06,.04-.31,.12-.74,.08-.43,.17-.78,.26-1.03-.38,.74-.82,1.44-1.3,2.11-.48,.67-1,1.27-1.56,1.8-.56,.53-1.14,.96-1.75,1.3-.61,.34-1.22,.55-1.82,.65-.51,.06-1.05,.03-1.61-.1-.56-.13-1.08-.4-1.56-.82-.48-.42-.89-1-1.22-1.75s-.54-1.7-.6-2.86c-.06-1.38,.03-2.58,.29-3.62,.26-1.04,.61-2.06,1.06-3.05,.29-.64,.6-1.32,.94-2.04s.7-1.42,1.1-2.11c.4-.69,.82-1.34,1.27-1.97,.45-.62,.93-1.14,1.44-1.56,.96-.8,1.94-1.37,2.95-1.7s1.96-.47,2.86-.41c.9,.06,1.69,.31,2.38,.74,.69,.43,1.19,1.02,1.51,1.75l.34,.72c.26-.48,.5-.9,.72-1.25,.22-.35,.45-.66,.67-.91,.64-.64,1.34-.98,2.11-1.01,.77-.03,1.46,.06,2.06,.26,.61,.21,1.05,.46,1.32,.74,.27,.29,.25,.43-.07,.43-.29,0-.6,.21-.94,.62-.34,.42-.65,.9-.94,1.44-.29,.54-.55,1.09-.79,1.63-.24,.54-.42,.94-.55,1.2-1.25,2.69-2.14,4.7-2.66,6.05-.53,1.34-.86,2.22-.98,2.64-.1,.19-.19,.5-.29,.94s-.15,.86-.17,1.27c-.02,.42,.03,.76,.14,1.03,.11,.27,.33,.36,.65,.26,.29-.13,.58-.3,.89-.53,.3-.22,.62-.48,.94-.77,.32-.32,.64-.69,.96-1.1,.32-.42,.6-.82,.84-1.2s.45-.73,.62-1.03c.18-.3,.29-.5,.36-.6,.26-.45,.48-.86,.67-1.25,.19-.38,.37-.77,.53-1.15,.26-.58,.52-1.15,.79-1.73,.27-.58,.49-1.07,.65-1.49Zm-15.02,9.41c.26-.26,.59-.66,1.01-1.2,.42-.54,.86-1.2,1.34-1.97,.48-.77,.97-1.62,1.46-2.54,.5-.93,.94-1.92,1.32-2.98,.29-.77,.5-1.4,.62-1.9s.22-.9,.26-1.2c.05-.3,.06-.54,.02-.72-.03-.18-.06-.36-.1-.55-.13-.32-.35-.61-.67-.86-.32-.26-.74-.37-1.25-.34-.64,.06-1.42,.5-2.35,1.32-.93,.82-1.81,2.04-2.64,3.67-.96,1.82-1.64,3.39-2.04,4.7s-.55,2.53-.46,3.65c.06,.83,.23,1.38,.5,1.63,.27,.26,.52,.42,.74,.48,.19,.06,.47,.02,.84-.14,.37-.16,.82-.51,1.37-1.06Z"/><path class="cls-1" d="M207.4,69.65c.13-.32,.32-.6,.58-.84,.26-.24,.5-.41,.72-.5,.22-.1,.4-.12,.53-.07,.13,.05,.14,.18,.05,.41-.54,1.15-1.06,2.4-1.56,3.74s-1.06,2.66-1.68,3.96-1.35,2.51-2.18,3.65c-.83,1.14-1.86,2.1-3.07,2.9-.38,.26-.85,.48-1.39,.67-.54,.19-1.09,.32-1.63,.38-.54,.06-1.02,0-1.42-.19-.4-.19-.78-.48-1.13-.86-.26-.25-.53-.62-.82-1.1-.29-.48-.56-1.02-.82-1.61-.26-.59-.47-1.23-.65-1.92-.18-.69-.28-1.35-.31-1.99-.06,.19-.18,.5-.36,.94s-.36,.93-.55,1.49c-.19,.56-.38,1.13-.58,1.7-.19,.58-.34,1.1-.43,1.58-.06,.7-.03,1.12,.1,1.25,.06,.07,.1,.14,.1,.24s-.05,.18-.14,.24c-.16,.16-.46,.25-.91,.26-.45,.02-.91-.04-1.39-.17-.48-.13-.92-.35-1.32-.67-.4-.32-.63-.77-.7-1.34-.06-.61,0-1.5,.22-2.66,.21-1.17,.49-2.42,.84-3.77,.35-1.34,.74-2.68,1.15-4.01,.42-1.33,.82-2.47,1.2-3.43,.8-2.24,1.65-4.42,2.54-6.55,.9-2.13,1.78-4.05,2.64-5.76,.86-1.71,1.67-3.17,2.42-4.37,.75-1.2,1.42-2.02,1.99-2.47,.25-.22,.58-.39,.98-.5,.4-.11,.73-.15,.98-.12,.51,.03,.96,.15,1.34,.36,.38,.21,.69,.44,.91,.7,.22,.26,.36,.49,.41,.7,.05,.21,0,.31-.17,.31-.22,0-.54,.3-.96,.89-.42,.59-.89,1.38-1.42,2.35-.53,.98-1.09,2.08-1.68,3.31-.59,1.23-1.18,2.49-1.75,3.77-.58,1.28-1.12,2.52-1.63,3.72-.51,1.2-.94,2.25-1.3,3.14-.1,.26-.22,.58-.38,.96-.16,.38-.34,.82-.53,1.3,.29-.58,.62-1.18,1.01-1.82,.38-.64,.79-1.26,1.22-1.85,.43-.59,.9-1.15,1.42-1.68,.51-.53,1.06-.98,1.63-1.37,1.06-.7,1.96-1.15,2.71-1.34,.75-.19,1.35-.19,1.8,0,.45,.19,.76,.53,.94,1.01,.17,.48,.25,1.06,.22,1.73-.06,.74-.19,1.54-.38,2.42-.19,.88-.51,1.74-.96,2.57-.54,1.06-1.1,1.9-1.66,2.54-.56,.64-1.34,1.22-2.33,1.73-.54,.26-1.09,.44-1.63,.55-.54,.11-1.09,.2-1.63,.26,.03,.77,.14,1.52,.34,2.26,.19,.74,.43,1.39,.72,1.97s.61,1.03,.96,1.37c.35,.34,.72,.5,1.1,.5,.67,0,1.33-.31,1.97-.94,.64-.62,1.24-1.36,1.8-2.21,.56-.85,1.06-1.71,1.51-2.59,.45-.88,.8-1.59,1.06-2.14,.29-.64,.54-1.2,.77-1.68,.22-.48,.42-.91,.58-1.3Zm-12.82,2.74c.86-.03,1.55-.18,2.06-.43,.51-.26,.99-.56,1.44-.91,.83-.61,1.5-1.3,2.02-2.09,.51-.78,.86-1.5,1.06-2.14,.22-.74,.33-1.33,.31-1.78-.02-.45-.06-.7-.12-.77-.16-.22-.4-.29-.72-.19-.32,.1-.68,.3-1.08,.6-.4,.3-.82,.72-1.25,1.25-.43,.53-.84,1.11-1.22,1.75-.32,.51-.71,1.22-1.18,2.11-.46,.9-.9,1.76-1.32,2.59Z"/><path class="cls-1" d="M225.54,69.6c.13-.32,.33-.6,.6-.84,.27-.24,.53-.42,.77-.53,.24-.11,.43-.15,.58-.12,.14,.03,.17,.16,.07,.38-.06,.16-.25,.65-.55,1.46-.3,.82-.7,1.78-1.18,2.9-.22,.48-.55,1.18-.98,2.11-.43,.93-.92,1.84-1.46,2.74-.42,.67-.82,1.27-1.2,1.8-.38,.53-.79,.99-1.22,1.39-.43,.4-.91,.77-1.44,1.1s-1.13,.67-1.8,.98c-.83,.38-1.72,.65-2.66,.79-.94,.14-1.88,.18-2.81,.12-.77,.03-1.51-.1-2.23-.38s-1.37-.69-1.94-1.2-1.06-1.12-1.44-1.82c-.38-.7-.62-1.47-.72-2.3-.19-1.82-.13-3.47,.19-4.94,.32-1.47,.78-2.78,1.39-3.94,.86-1.66,1.78-2.94,2.74-3.84,.96-.9,1.86-1.62,2.69-2.16,1.12-.77,2.21-1.27,3.29-1.51,1.07-.24,1.99-.39,2.76-.46,.54-.03,1.1,.06,1.66,.26,.56,.21,1.06,.51,1.51,.91,.45,.4,.79,.91,1.03,1.54,.24,.62,.31,1.32,.22,2.09-.06,.58-.18,1.15-.36,1.73-.18,.58-.44,1.15-.79,1.73-.35,.58-.82,1.16-1.42,1.75s-1.34,1.18-2.23,1.75c-.7,.45-1.42,.78-2.16,.98-.74,.21-1.43,.34-2.09,.38-.66,.05-1.22,.04-1.7-.02-.48-.06-.83-.14-1.06-.24-.03,.1-.1,.33-.19,.7-.1,.37-.16,.78-.19,1.25-.03,.46-.02,.95,.05,1.46s.22,.96,.48,1.34c1.09,1.5,2.9,1.86,5.42,1.06,1.09-.35,2.24-1.18,3.46-2.47,1.22-1.3,2.43-3.06,3.65-5.3,.32-.58,.58-1.08,.77-1.51,.19-.43,.37-.81,.53-1.13Zm-6.53-5.18c-.29,.06-.72,.24-1.3,.53-.58,.29-1.21,.74-1.9,1.34-.69,.61-1.38,1.4-2.06,2.38-.69,.98-1.27,2.15-1.75,3.53,.8,.1,1.56,.03,2.28-.19,.72-.22,1.38-.53,1.97-.91,.59-.38,1.12-.82,1.58-1.3,.46-.48,.86-.94,1.18-1.39,.42-.58,.74-1.13,.98-1.66,.24-.53,.38-.98,.41-1.34,.03-.37-.06-.65-.29-.84s-.59-.24-1.1-.14Z"/><path class="cls-1" d="M232.98,81.74c-.64,.8-1.5,1.42-2.59,1.85s-2.35,.54-3.79,.31c-1.02-.16-1.87-.59-2.54-1.3-.67-.7-.99-1.68-.96-2.93,0-.51,.13-.98,.38-1.42,.26-.43,.58-.81,.96-1.13,.22-.19,.5-.35,.84-.48,.34-.13,.67-.22,1.01-.26s.64-.03,.91,.05c.27,.08,.44,.22,.5,.41-.26,.06-.46,.22-.6,.48-.14,.26-.23,.51-.26,.77-.03,.22-.03,.49,0,.79,.03,.3,.12,.59,.26,.86,.14,.27,.37,.49,.67,.65s.71,.19,1.22,.1c.58-.06,.98-.33,1.2-.79,.22-.46,.37-.89,.43-1.27,.13-.83,.11-1.67-.05-2.52-.16-.85-.38-1.7-.65-2.54-.27-.85-.53-1.7-.77-2.57-.24-.86-.36-1.71-.36-2.54,0-.54,0-1,.02-1.37,.02-.37,.1-.78,.26-1.22-.26,.35-.51,.78-.77,1.27-.26,.5-.51,1.02-.77,1.56-.29,.48-.57,1.06-.84,1.75-.27,.69-.62,1.5-1.03,2.42l-1.34-.14c.03-.1,.06-.18,.1-.26,.03-.08,.06-.15,.1-.22,.45-1.25,.98-2.54,1.58-3.89,.61-1.34,1.23-2.51,1.87-3.5,.77-1.15,1.7-2.02,2.81-2.59,1.1-.58,2.14-.93,3.1-1.06,.99-.13,1.86-.18,2.62-.17s1.4,.33,1.94,.94c.16,.19,.27,.46,.34,.79,.06,.34,.09,.64,.07,.91-.02,.27-.05,.48-.1,.62s-.12,.14-.22-.02c-.1-.13-.29-.2-.58-.22-.29-.02-.61,.02-.96,.12-.35,.1-.73,.23-1.13,.41-.4,.18-.74,.38-1.03,.6-.54,.45-.93,1.05-1.15,1.8-.22,.75-.26,1.9-.1,3.43,.06,.61,.18,1.22,.34,1.82,.16,.61,.32,1.21,.48,1.8,.16,.59,.29,1.18,.38,1.75s.13,1.15,.1,1.73c-.1,.93-.3,1.74-.62,2.42-.32,.69-.75,1.35-1.3,1.99Z"/><path class="cls-1" d="M93.26,49.99c-2.88,1.43-4.05,5.94-1.44,8.06,4.06,2.99,7.75-3.3,3.39-5.53-.67-.29-1.42-.24-2.03,.14-1.99,1-1.18,5.08,1.3,3.9,1.29-.61,1.34-2.81-.3-2.86-.8,.04-1.37,.97-.84,1.69-.82-.7-.27-1.99,.74-2.23,1.04-.28,2.2,.52,2.37,1.66,.18,2.32-2.76,3.91-4.48,2.27-.79-.77-.99-1.85-.88-2.81,.51-3.67,5.14-3.81,6.6-.7,2.08,4.14-2.86,8.2-6.49,5.26-3.32-2.48-1.65-7.93,2.07-8.84h0Z"/><path class="cls-3" d="M95.22,48.39c-.01-.1,.06-.16,.09-.24,.04-.1,.02-.14-.09-.13-.09,0-.17,.06-.26,.03-.03-.08,.03-.14,.06-.2,.02-.05,.06-.09-.03-.14-.06-.04,.01-.1,.05-.14,.2-.24,.37-.49,.56-.74,.36-.49,.74-.98,1.11-1.46,.56-.74,1.1-1.49,1.61-2.27,.43-.65,.88-1.29,1.33-1.93,.47-.68,.94-1.36,1.41-2.03,.57-.8,1.14-1.59,1.72-2.38,.56-.76,1.13-1.51,1.71-2.26,.76-.98,1.54-1.94,2.35-2.87,.59-.68,1.2-1.34,1.86-1.95,.52-.48,1.07-.92,1.68-1.29,.39-.24,.77-.48,1.18-.7,.85-.46,1.74-.84,2.67-1.11,.64-.19,1.3-.33,1.97-.4,.84-.08,1.68-.08,2.51,.1,.9,.19,1.74,.51,2.48,1.07,.04,.03,.09,.06,.13,.09,.08,.06,.15,.07,.24,0,.09-.07,.18-.12,.28-.18,.31-.2,.54-.46,.72-.79,.4-.73,.82-1.45,1.22-2.18,.48-.89,.95-1.78,1.44-2.66,.47-.85,.94-1.69,1.43-2.52,.43-.72,.89-1.43,1.39-2.1,.03-.04,.06-.08,.09-.12,.05-.06,.1-.06,.16-.02,.29,.21,.61,.36,.92,.53,.19,.11,.34,.26,.48,.42,.38,.43,.56,.94,.63,1.5,.1,.8,.54,1.39,1.26,1.76,.31,.16,.62,.31,.86,.57,.38,.42,.64,.89,.69,1.47,.08,.86,.52,1.5,1.3,1.9,.12,.06,.25,.14,.37,.2,.49,.25,.78,.69,1.01,1.16,.07,.14,.06,.18-.09,.23-.65,.2-1.31,.41-1.97,.57-.39,.09-.77,.18-1.16,.27-1.16,.26-2.33,.47-3.49,.68-.51,.1-1.01,.18-1.52,.27-1.18,.21-2.36,.44-3.53,.7-.08,.02-.15,.05-.22,.1-.21,.15-.41,.31-.62,.46-.1,.07-.12,.14-.08,.26,.22,.64,.33,1.3,.32,1.98,0,.55-.07,1.1-.2,1.64-.08,.34-.17,.67-.29,1-.3,.79-.68,1.53-1.16,2.23-.29,.42-.59,.83-.92,1.21-.49,.58-1.03,1.11-1.61,1.6-.3,.25-.6,.49-.91,.73-.6,.47-1.27,.83-1.95,1.17-.32,.16-.64,.31-.96,.45-1.16,.53-2.35,.98-3.55,1.43-.93,.35-1.87,.67-2.82,.98-.73,.24-1.45,.49-2.18,.72-1.2,.37-2.39,.74-3.6,1.09-1.03,.3-2.07,.58-3.11,.88-.37,.11-.74,.24-1.11,.36-1.1,.37-2.2,.73-3.29,1.1-.08,.03-.16,.09-.22-.03-.02-.04-.08,0-.13,0-.06,0-.12,.03-.17-.02Z"/></svg>