<?xml version="1.0" encoding="UTF-8"?><svg id="Layer_1" xmlns="http://www.w3.org/2000/svg" viewBox="0 0 229.25 72.81"><defs><style>.cls-1{fill:#fff;}.cls-2{fill:none;stroke:#fff;stroke-miterlimit:10;stroke-width:2px;}</style></defs><g><path class="cls-1" d="M11.58,33.25c1.73-.19,3.41-.17,5.04,.07,1.63,.24,3.07,.74,4.32,1.49,1.25,.75,2.25,1.78,3,3.1,.75,1.31,1.13,2.94,1.13,4.9,0,1.63-.42,3.3-1.25,4.99-.83,1.7-1.97,3.25-3.41,4.66-1.44,1.41-3.14,2.59-5.09,3.55-1.95,.96-4.08,1.55-6.38,1.78-.64,2.05-1.25,4.02-1.82,5.9s-1.02,3.38-1.34,4.46c-.19,.74-.32,1.49-.38,2.26-.06,.77,.02,1.31,.24,1.63-.32,.13-.71,.15-1.18,.07-.46-.08-.92-.28-1.37-.6-.45-.32-.84-.76-1.18-1.32-.34-.56-.52-1.24-.55-2.04-.06-1.34,.07-2.67,.41-3.98,.34-1.31,.76-2.74,1.27-4.27,.19-.54,.46-1.3,.79-2.26,.34-.96,.7-2.02,1.1-3.17,.4-1.15,.8-2.33,1.2-3.53,.4-1.2,.78-2.3,1.13-3.31,.35-1.01,.64-1.84,.86-2.5,.22-.66,.35-1.03,.38-1.13,.22-.67,.36-1.22,.41-1.66,.05-.43,.06-.79,.05-1.08-.02-.29-.06-.51-.14-.67-.08-.16-.15-.29-.22-.38,.29-.13,.62-.19,1.01-.19s.77,.06,1.15,.17c.38,.11,.74,.27,1.06,.48,.32,.21,.58,.44,.77,.7,.35,.54,.48,1.25,.38,2.11-.1,.86-.37,2.11-.82,3.74-.03,.1-.11,.34-.24,.74-.13,.4-.29,.91-.48,1.54s-.41,1.3-.65,2.04c-.24,.74-.47,1.49-.7,2.26,3.33-.74,5.88-1.93,7.66-3.58,1.78-1.65,2.74-3.86,2.9-6.65,.13-1.86-.44-3.38-1.7-4.58-1.26-1.2-3.34-1.74-6.22-1.61-1.73,.1-3.23,.51-4.51,1.25-1.28,.74-2.24,1.57-2.88,2.5-1.44,2.05-1.7,3.71-.77,4.99-.93,.16-1.71,.04-2.35-.36-.64-.4-1.1-.96-1.39-1.68-.29-.72-.38-1.54-.29-2.47,.1-.93,.43-1.84,1.01-2.74,1.18-1.79,2.68-3.13,4.49-4.01,1.81-.88,3.66-1.42,5.54-1.61Z"/><path class="cls-1" d="M11.58,33.25c15.02-2,18.48,12.54,7.51,21-2.91,2.25-6.44,3.7-10.11,4.02l.43-.35-2.18,7.07c-.51,2.12-1.8,4.61-1.2,6.75l.36,.52c-1.84,1-4-.15-4.92-1.82-1.46-2.89-.22-6.26,.6-9.11,1.52-4.86,4.15-12.12,5.77-16.97,.39-1.03,.63-2.03,.61-3.08,.01-.49-.36-.89-.58-1.32,1.77-.89,3.88-.39,5.11,1.11,.74,1.15,.5,2.49,.3,3.52-.36,2.17-2.09,7.17-2.73,9.34l-.59-.63c3.21-.73,6.62-2.03,8.57-4.77,2.9-4.45,2.15-10.58-4.22-10.65-3.28-.25-6.82,.92-8.7,3.69-.85,1.23-1.61,2.92-.66,4.24l.46,.65-.79,.14c-3.52,.69-5.3-3.24-4.17-6.15,1.73-4.45,6.58-6.76,11.09-7.21h0Zm0,0c-3.58,.42-7.26,1.97-9.37,5-1.53,1.92-2.15,5.32,0,6.97,.65,.48,1.45,.55,2.27,.39l-.32,.79c-.62-.81-.78-1.95-.54-2.88,1.22-4.62,6.27-7.06,10.76-6.64,1.81,.1,3.77,.54,5.09,1.93,1.36,1.31,1.88,3.37,1.64,5.19-.16,3.67-2.59,7.03-5.89,8.56-1.86,.95-3.86,1.5-5.87,1.92l.26-.82c.63-2.14,2.35-7.1,2.71-9.25,.21-1.03,.33-2.05-.15-2.77-.56-.78-2.34-1.43-3.36-.97l.21-.73c.22,.33,.45,.87,.44,1.29,.03,1.15-.26,2.46-.66,3.46-1.61,4.82-4.25,12.1-5.76,16.94-.76,2.65-1.92,5.67-.7,8.3,.6,1.07,1.88,2,3.1,1.64l-.22,.75c-.48-.81-.34-1.5-.31-2.14,.16-1.89,.87-3.68,1.38-5.47l2.18-7.08,.1-.32,.33-.03c3.49-.31,6.83-1.68,9.59-3.82,10.27-8.01,7.52-21.91-6.9-20.21h0Z"/></g><g><path class="cls-1" d="M45.42,53.79c.13-.32,.3-.58,.53-.79,.22-.21,.45-.36,.67-.46,.22-.1,.4-.12,.53-.07,.13,.05,.14,.18,.05,.41-.06,.1-.18,.35-.34,.77-.16,.42-.36,.94-.6,1.56-.24,.62-.53,1.34-.86,2.14-.34,.8-.71,1.63-1.13,2.5-.03,.07-.12,.22-.26,.48-.14,.26-.3,.55-.46,.89-.16,.34-.34,.67-.53,1.01-.19,.34-.35,.62-.48,.84-.42,.67-.9,1.34-1.44,1.99-.54,.66-1.17,1.22-1.87,1.7-.19,.13-.44,.28-.74,.46-.3,.18-.62,.34-.96,.48-.34,.14-.68,.26-1.03,.34-.35,.08-.69,.09-1.01,.02-.99-.19-1.71-.66-2.16-1.39-.45-.74-.62-1.63-.53-2.69,0-.06,.04-.31,.12-.74,.08-.43,.17-.78,.26-1.03-.38,.74-.82,1.44-1.3,2.11-.48,.67-1,1.27-1.56,1.8-.56,.53-1.14,.96-1.75,1.3-.61,.34-1.22,.55-1.82,.65-.51,.06-1.05,.03-1.61-.1-.56-.13-1.08-.4-1.56-.82s-.89-1-1.22-1.75c-.34-.75-.54-1.7-.6-2.86-.06-1.38,.03-2.58,.29-3.62,.26-1.04,.61-2.06,1.06-3.05,.29-.64,.6-1.32,.94-2.04s.7-1.42,1.1-2.11c.4-.69,.82-1.34,1.27-1.97,.45-.62,.93-1.14,1.44-1.56,.96-.8,1.94-1.37,2.95-1.7s1.96-.47,2.86-.41c.9,.06,1.69,.31,2.38,.74,.69,.43,1.19,1.02,1.51,1.75l.34,.72c.26-.48,.5-.9,.72-1.25,.22-.35,.45-.66,.67-.91,.64-.64,1.34-.98,2.11-1.01,.77-.03,1.46,.06,2.06,.26,.61,.21,1.05,.46,1.32,.74,.27,.29,.25,.43-.07,.43-.29,0-.6,.21-.94,.62-.34,.42-.65,.9-.94,1.44-.29,.54-.55,1.09-.79,1.63-.24,.54-.42,.94-.55,1.2-1.25,2.69-2.14,4.7-2.66,6.05-.53,1.34-.86,2.22-.98,2.64-.1,.19-.19,.5-.29,.94-.1,.43-.15,.86-.17,1.27-.02,.42,.03,.76,.14,1.03,.11,.27,.33,.36,.65,.26,.29-.13,.58-.3,.89-.53,.3-.22,.62-.48,.94-.77,.32-.32,.64-.69,.96-1.1,.32-.42,.6-.82,.84-1.2,.24-.38,.45-.73,.62-1.03,.18-.3,.3-.5,.36-.6,.26-.45,.48-.86,.67-1.25s.37-.77,.53-1.15c.26-.58,.52-1.15,.79-1.73,.27-.58,.49-1.07,.65-1.49Zm-15.02,9.41c.26-.26,.59-.66,1.01-1.2,.42-.54,.86-1.2,1.34-1.97s.97-1.62,1.46-2.54c.5-.93,.94-1.92,1.32-2.98,.29-.77,.5-1.4,.62-1.9,.13-.5,.22-.9,.26-1.2,.05-.3,.06-.54,.02-.72-.03-.18-.06-.36-.1-.55-.13-.32-.35-.61-.67-.86-.32-.26-.74-.37-1.25-.34-.64,.06-1.42,.5-2.35,1.32-.93,.82-1.81,2.04-2.64,3.67-.96,1.82-1.64,3.39-2.04,4.7-.4,1.31-.55,2.53-.46,3.65,.06,.83,.23,1.38,.5,1.63,.27,.26,.52,.42,.74,.48,.19,.06,.47,.02,.84-.14,.37-.16,.82-.51,1.37-1.06Z"/><g><path class="cls-1" d="M45.42,53.79c.25-.64,.81-1.2,1.5-1.35,.31-.06,.46,.16,.31,.45-1.55,3.96-2.68,8.3-5.24,11.8-1.42,2.01-3.8,3.84-6.38,3.88-2.32-.18-3.63-2.55-3.31-4.65,.04-.35,.26-1.41,.41-1.91l.91,.41c-5.78,10.96-15.28,6.04-11.6-5.21,1.48-3.51,2.96-7.39,6.02-9.82,3.09-2.52,8.85-2.79,10.29,1.68l-.89-.02c.74-1.35,1.73-3.15,3.53-3.39,1.45-.16,2.93,.09,4.07,1.04,.6,.48,.56,1.35-.33,1.36-.55,.15-1.21,1.37-1.53,1.98-.78,1.54-1.84,3.96-2.55,5.59-.76,1.64-1.73,3.99-2.32,5.66-.27,.82-.51,1.9-.4,2.75,.01,.06,.03,.13,.05,.17,.01,.03,.01,.03,0,.03-.05-.02-.03,.02,.08-.01l-.05,.02c1.55-.72,2.71-2.05,3.69-3.42,1.51-2.13,2.7-4.61,3.74-7.02h0Zm0,0c-1,2.27-2.1,5.12-3.37,7.24-.91,1.59-2.05,3.12-3.7,4.01-1.76,.53-1.52-1.99-1.3-3.04,.57-2,1.71-4.67,2.67-6.79,.74-1.69,1.75-4.01,2.58-5.65,.58-.97,1.09-2.34,2.41-2.52,.03,0,.07-.02-.04,.02-.04,.01-.17,.13-.2,.27-.02,.13,0,.18,.01,.2-.76-.8-2.26-1.03-3.35-.9-1.75,.31-2.39,2.31-3.29,3.7l-.42-.85c-1.19-3.86-6.14-3.46-8.79-1.3-2.88,2.31-4.27,6.04-5.68,9.35-1.02,3.07-1.5,7.83,1.68,9.72,2.57,1.15,5.13-.98,6.62-2.96,.53-.75,.97-1.56,1.47-2.33l.91,.41c-.59,1.76-.68,4.36,1.4,5.05,1.45,.54,2.77-.43,4.01-1.16,2.48-1.88,3.94-4.89,5.42-7.57,1.03-1.86,1.8-3.89,2.69-5.82,.04-.1,.09-.22,.05-.31-.05-.09-.19-.1-.29-.09-.67,.14-1.25,.69-1.5,1.32h0Z"/><path class="cls-1" d="M30.39,63.2c.74-.78,1.42-2.16,1.87-3.13,.45-1.14,1.15-2.13,1.7-3.19,.89-1.83,1.69-3.83,1.99-5.85,.03-.22-.08-.57-.11-.8l.03,.1c-.07-.16-.17-.32-.3-.46-.37-.43-.97-.54-1.51-.33-2.63,1.17-3.93,4.03-5.15,6.56-.81,1.77-1.5,3.61-1.51,5.49,.04,.65,.03,1.36,.21,1.96,.65,1.34,2.03,.42,2.77-.35h0Zm0,0c-.64,.59-1.3,1.46-2.27,1.41-.72-.11-1.37-.73-1.54-1.45-.62-2.56,.42-5.24,1.42-7.48,.87-1.8,1.71-3.65,3.14-5.21,1.14-1.19,3.13-2.84,4.83-1.59,.37,.3,.68,.66,.85,1.12,.18,.72,.16,1.36-.04,2.04-.75,3.01-1.99,5.96-3.89,8.42-.72,.8-1.81,1.94-2.51,2.73h0Z"/></g></g><g><path class="cls-1" d="M59.96,53.84c.13-.32,.31-.58,.55-.79,.24-.21,.46-.36,.67-.46,.21-.1,.37-.12,.48-.07,.11,.05,.12,.18,.02,.41-.06,.16-.22,.6-.46,1.32-.24,.72-.6,1.67-1.08,2.86-.96,2.37-2.1,4.32-3.43,5.86-1.33,1.54-2.9,2.88-4.73,4.03-1.02,.64-2.02,1-3,1.08-.98,.08-1.83,.09-2.57,.02-1.06-.13-1.91-.55-2.57-1.27-.66-.72-.97-1.7-.94-2.95,0-.51,.13-.98,.38-1.42,.26-.43,.56-.81,.91-1.13,.22-.19,.5-.35,.84-.48s.68-.22,1.03-.26c.35-.05,.66-.03,.94,.05,.27,.08,.44,.22,.5,.41-.26,.06-.46,.22-.6,.48s-.23,.51-.26,.77c-.03,.22-.03,.49,0,.79,.03,.3,.12,.59,.26,.86,.14,.27,.37,.49,.67,.65,.3,.16,.71,.19,1.22,.1,.54-.06,.94-.33,1.18-.79,.24-.46,.39-.89,.46-1.27,.13-.83,.11-1.67-.05-2.52-.16-.85-.37-1.7-.62-2.54-.26-.85-.5-1.7-.74-2.57-.24-.86-.38-1.71-.41-2.54,0-.54,0-1,.02-1.37,.02-.37,.1-.78,.26-1.22-.26,.35-.51,.78-.77,1.27-.26,.5-.53,1.02-.82,1.56-.26,.48-.53,1.06-.82,1.75-.29,.69-.62,1.5-1.01,2.42l-1.39-.14c.03-.1,.06-.18,.1-.26,.03-.08,.06-.15,.1-.22,.45-1.25,.98-2.54,1.61-3.89,.62-1.34,1.26-2.51,1.9-3.5,.74-1.15,1.66-2.02,2.78-2.59,1.12-.58,2.16-.93,3.12-1.06,.99-.13,1.86-.18,2.59-.17,.74,.02,1.38,.33,1.92,.94,.16,.19,.27,.46,.34,.79,.06,.34,.1,.64,.1,.91s-.03,.48-.1,.62c-.06,.14-.14,.14-.24-.02-.1-.13-.28-.2-.55-.22-.27-.02-.59,.02-.96,.12-.37,.1-.74,.23-1.13,.41-.38,.18-.72,.38-1.01,.6-.26,.22-.5,.48-.72,.77-.22,.29-.39,.7-.5,1.22-.11,.53-.15,1.22-.12,2.06,.03,.85,.18,1.96,.43,3.34,.1,.45,.22,.9,.38,1.37s.3,.96,.41,1.49c.11,.53,.17,1.08,.17,1.66s-.13,1.18-.38,1.82c.38-.42,.72-.78,1.01-1.08,.29-.3,.59-.66,.91-1.08,.32-.42,.68-.96,1.08-1.63,.4-.67,.9-1.6,1.51-2.78,.26-.54,.46-1,.6-1.37s.31-.74,.5-1.13Z"/><path class="cls-1" d="M59.96,53.84c.21-.57,.7-1.01,1.24-1.27,.16-.06,.44-.19,.56,.04-.66,2.35-1.41,4.64-2.4,6.89-1.33,3.02-3.61,5.6-6.36,7.42-1.32,.98-3.07,1.73-4.74,1.7-1.67,.13-3.69-.09-4.85-1.54-1.49-1.8-1.35-4.66,.49-6.15,.94-.68,2.21-1.07,3.35-.75,.25,.08,.61,.3,.74,.7l.17,.5-.52,.14c-.59,.26-.52,1.17-.45,1.71,.18,.75,.63,1.11,1.4,.98,.69-.07,.86-.29,1.11-.85,.78-1.76,.06-3.74-.36-5.53-.74-2.53-1.77-5.51-.89-8.15l.88,.46c-1.37,2.17-2.38,4.51-3.35,6.9l-.15,.34-.37-.04c-.4-.05-1.63-.16-2.02-.21,.23-.76,1.15-2.88,1.51-3.76,1.42-3.62,3.49-7.57,7.63-8.47,.99-.3,1.99-.26,2.96-.35,.48-.02,1.11-.11,1.57,.07,1.13,.29,2.06,1.44,2,2.52,.05,.5,.13,1.04-.2,1.5-.05,.08-.3,.27-.57,.2-.32-.11-.32-.18-.44-.35l.03,.04c-.72-.1-1.83,.33-2.55,.74-.28,.13-.55,.44-.75,.66-.26,.26-.42,.46-.53,.77-.59,2.07-.15,4.4,.38,6.45,.54,1.86,1.09,4,.18,5.83l-.55-.35c2.68-2.35,4.47-5.6,5.86-8.85h0Zm0,0c-1.41,3.29-2.9,6.66-5.37,9.3l-.55-.35c.86-2.16-.43-4.3-.82-6.47-.29-2.26-1.05-5.17,.68-7.03,.53-.65,1.3-1.1,2.08-1.34,.84-.29,2.04-.79,2.78,.07-.02,.02,.1,.02-.2-.11-.26-.05-.41,.11-.45,.18,.11-.51,.01-1.51-.31-1.85-.58-.67-1.41-.78-2.24-.66-7.18-.11-8.65,5.79-10.97,11.29l-.42-.65,1.39,.14-.51,.31c.99-2.43,2.04-4.88,3.47-7.11l.88,.46c-.14,.39-.23,.76-.24,1.16-.06,1.25,.02,2.6,.41,3.81,.46,1.54,1.04,3.66,1.37,5.22,.38,2.14-.13,5.47-3.02,5-2.06-.25-2.48-4.03-.51-4.66l-.35,.65c.07,.01-.25-.16-.57-.14-3.87,.08-4.14,5.58-.53,6.45,2.22,.4,4.64,.06,6.48-1.41,3.25-2.25,5.91-5.34,7.52-8.99,.51-1.3,1.43-3.16,1.77-4.48-.07-.18-.35-.1-.51-.03-.54,.25-1.03,.68-1.25,1.25h0Z"/></g><g><path class="cls-1" d="M74.5,53.84c.13-.32,.31-.58,.55-.79,.24-.21,.46-.36,.67-.46,.21-.1,.37-.12,.48-.07,.11,.05,.12,.18,.02,.41-.06,.16-.22,.6-.46,1.32-.24,.72-.6,1.67-1.08,2.86-.96,2.37-2.1,4.32-3.43,5.86-1.33,1.54-2.9,2.88-4.73,4.03-1.02,.64-2.02,1-3,1.08-.98,.08-1.83,.09-2.57,.02-1.06-.13-1.91-.55-2.57-1.27-.66-.72-.97-1.7-.94-2.95,0-.51,.13-.98,.38-1.42,.26-.43,.56-.81,.91-1.13,.22-.19,.5-.35,.84-.48s.68-.22,1.03-.26c.35-.05,.66-.03,.94,.05,.27,.08,.44,.22,.5,.41-.26,.06-.46,.22-.6,.48s-.23,.51-.26,.77c-.03,.22-.03,.49,0,.79,.03,.3,.12,.59,.26,.86,.14,.27,.37,.49,.67,.65,.3,.16,.71,.19,1.22,.1,.54-.06,.94-.33,1.18-.79,.24-.46,.39-.89,.46-1.27,.13-.83,.11-1.67-.05-2.52-.16-.85-.37-1.7-.62-2.54-.26-.85-.5-1.7-.74-2.57-.24-.86-.38-1.71-.41-2.54,0-.54,0-1,.02-1.37,.02-.37,.1-.78,.26-1.22-.26,.35-.51,.78-.77,1.27-.26,.5-.53,1.02-.82,1.56-.26,.48-.53,1.06-.82,1.75-.29,.69-.62,1.5-1.01,2.42l-1.39-.14c.03-.1,.06-.18,.1-.26,.03-.08,.06-.15,.1-.22,.45-1.25,.98-2.54,1.61-3.89,.62-1.34,1.26-2.51,1.9-3.5,.74-1.15,1.66-2.02,2.78-2.59,1.12-.58,2.16-.93,3.12-1.06,.99-.13,1.86-.18,2.59-.17,.74,.02,1.38,.33,1.92,.94,.16,.19,.27,.46,.34,.79,.06,.34,.1,.64,.1,.91s-.03,.48-.1,.62c-.06,.14-.14,.14-.24-.02-.1-.13-.28-.2-.55-.22-.27-.02-.59,.02-.96,.12-.37,.1-.74,.23-1.13,.41-.38,.18-.72,.38-1.01,.6-.26,.22-.5,.48-.72,.77-.22,.29-.39,.7-.5,1.22-.11,.53-.15,1.22-.12,2.06,.03,.85,.18,1.96,.43,3.34,.1,.45,.22,.9,.38,1.37s.3,.96,.41,1.49c.11,.53,.17,1.08,.17,1.66s-.13,1.18-.38,1.82c.38-.42,.72-.78,1.01-1.08,.29-.3,.59-.66,.91-1.08,.32-.42,.68-.96,1.08-1.63,.4-.67,.9-1.6,1.51-2.78,.26-.54,.46-1,.6-1.37s.31-.74,.5-1.13Z"/><path class="cls-1" d="M74.5,53.84c.21-.57,.7-1.01,1.24-1.27,.16-.06,.44-.19,.56,.04-.66,2.35-1.41,4.64-2.4,6.89-1.33,3.02-3.61,5.6-6.36,7.42-1.32,.98-3.07,1.73-4.74,1.7-1.67,.13-3.69-.09-4.85-1.54-1.49-1.8-1.35-4.66,.49-6.15,.94-.68,2.21-1.07,3.35-.75,.25,.08,.61,.3,.74,.7l.17,.5-.52,.14c-.59,.26-.52,1.17-.45,1.71,.18,.75,.63,1.11,1.4,.98,.69-.07,.86-.29,1.11-.85,.78-1.76,.06-3.74-.36-5.53-.74-2.53-1.77-5.51-.89-8.15l.88,.46c-1.37,2.17-2.38,4.51-3.35,6.9l-.15,.34-.37-.04c-.4-.05-1.63-.16-2.02-.21,.23-.76,1.15-2.88,1.51-3.76,1.42-3.62,3.49-7.57,7.63-8.47,.99-.3,1.99-.26,2.96-.35,.48-.02,1.11-.11,1.57,.07,1.13,.29,2.06,1.44,2,2.52,.05,.43,.1,.85-.08,1.3-.26,.64-.95,.43-1.1,.09-.72-.1-1.83,.33-2.55,.74-.28,.13-.55,.44-.75,.66-.53,.48-.66,1.08-.75,1.76-.14,1.8,.1,3.71,.6,5.46,.54,1.86,1.09,4,.18,5.83l-.55-.35c2.68-2.35,4.47-5.6,5.86-8.85h0Zm0,0c-1.41,3.29-2.9,6.66-5.37,9.3l-.55-.35c.86-2.16-.43-4.3-.82-6.47-.29-2.26-1.05-5.17,.68-7.03,.53-.65,1.3-1.1,2.08-1.34,.84-.29,2.04-.79,2.78,.07-.02,.02,.1,.02-.2-.11-.26-.05-.41,.11-.45,.18,.11-.51,.01-1.51-.31-1.85-.58-.67-1.41-.78-2.24-.66-7.18-.11-8.65,5.79-10.97,11.29l-.42-.65,1.39,.14-.51,.31c.99-2.43,2.04-4.88,3.47-7.11l.88,.46c-.14,.39-.23,.76-.24,1.16-.06,1.25,.02,2.6,.41,3.81,.46,1.54,1.04,3.66,1.37,5.22,.38,2.14-.13,5.47-3.02,5-2.06-.25-2.48-4.03-.51-4.66l-.35,.65c.07,.01-.25-.16-.57-.14-3.87,.08-4.14,5.58-.53,6.45,2.22,.4,4.64,.06,6.48-1.41,3.25-2.25,5.91-5.34,7.52-8.99,.51-1.3,1.43-3.16,1.77-4.48-.07-.18-.35-.1-.51-.03-.54,.25-1.03,.68-1.25,1.25h0Z"/></g><g><path class="cls-1" d="M84.77,53.79c.13-.32,.3-.58,.53-.77,.22-.19,.45-.33,.67-.41,.22-.08,.4-.08,.53,0,.13,.08,.14,.23,.05,.46-.06,.22-.38,1-.94,2.33-.56,1.33-1.27,2.87-2.14,4.63-.29,.61-.62,1.22-.98,1.82-.37,.61-.74,1.22-1.13,1.82-.38,.58-.78,1.14-1.2,1.68-.42,.54-.88,1.02-1.39,1.42-.51,.4-1.1,.73-1.75,.98-.66,.26-1.4,.38-2.23,.38-.54,0-1.15-.18-1.82-.55-.67-.37-1.09-.94-1.25-1.7-.16-.8-.17-1.76-.02-2.88,.14-1.12,.38-2.24,.7-3.36,.32-1.12,.66-2.19,1.03-3.22,.37-1.02,.68-1.87,.94-2.54,.29-.74,.59-1.48,.91-2.23,.32-.75,.64-1.46,.96-2.14,.32-.67,.62-1.27,.89-1.8,.27-.53,.52-.94,.74-1.22,.54-.67,1.21-1.11,1.99-1.32,.78-.21,1.5-.27,2.16-.19,.66,.08,1.15,.24,1.49,.48,.34,.24,.34,.46,.02,.65-.35,.19-.72,.61-1.1,1.25-.38,.64-.9,1.57-1.54,2.78-.54,1.06-1.1,2.25-1.68,3.58-.58,1.33-1.1,2.65-1.56,3.96-.46,1.31-.84,2.55-1.13,3.72s-.43,2.14-.43,2.9c0,.48,.13,.76,.38,.84,.26,.08,.57,.06,.94-.07,.37-.13,.73-.34,1.08-.62,.35-.29,.62-.56,.82-.82,.93-1.12,1.7-2.22,2.3-3.31,.61-1.09,1.18-2.18,1.73-3.26,.29-.61,.56-1.21,.82-1.8,.26-.59,.46-1.08,.62-1.46Z"/><path class="cls-1" d="M84.77,53.79c.24-.64,.85-1.21,1.55-1.26,.12,0,.26,.06,.31,.19-.09,.89-.67,2.03-.94,2.95-1.24,3.43-2.71,6.93-5,9.8-1.4,1.99-3.79,3.37-6.29,3.14-1.56-.2-3.12-1.32-3.23-2.97-.32-2.84,.55-5.59,1.42-8.24,1.15-3.49,2.51-6.89,4.24-10.17,.85-1.9,2.87-2.93,4.92-2.77,.8,.07,1.59,.18,2.24,.77,.48,.43,.24,1.11-.23,1.33-.56,.33-.99,1.21-1.42,1.99-1.8,3.13-3.19,6.49-4.4,9.89-.55,1.97-1.52,4.35-1.32,6.24,1.06,.09,1.86-.87,2.53-1.62,2.37-2.7,4.21-5.94,5.62-9.25h0Zm0,0c-1.46,3.35-2.68,6.89-4.87,9.86-.73,1.04-2.17,2.35-3.65,1.95-1.79-.92,.4-5.97,.73-7.49,1.23-3.46,2.65-6.87,4.48-10.06,.47-.78,.78-1.69,1.79-2.36,.06-.02,.07-.08,.01,.04-.05,.18,.06,.25,0,.2-.07-.07-.25-.17-.41-.24-1.95-.68-4.35,.05-5.17,2.03-1.67,3.16-3.04,6.56-4.17,9.99-.81,2.49-1.67,5.15-1.38,7.79,.14,1.74,2.1,2.36,3.59,2.07,1.68-.25,3.16-1.31,4.14-2.7,1.62-2.16,2.9-4.55,4.16-6.94,.78-1.52,2.04-3.57,2.51-5.19-.03-.09-.14-.15-.24-.16-.68,.01-1.3,.59-1.54,1.2h0Z"/></g><g><path class="cls-1" d="M103.78,53.84c.06-.19,.21-.38,.43-.55,.22-.18,.45-.3,.67-.38,.22-.08,.4-.09,.53-.02,.13,.06,.14,.24,.05,.53-.03,.1-.1,.26-.19,.5-.1,.24-.2,.5-.31,.79-.11,.29-.23,.58-.36,.89-.13,.3-.26,.57-.38,.79-.45,.77-.86,1.46-1.25,2.06-.38,.61-.83,1.13-1.34,1.56-.51,.43-1.14,.79-1.9,1.06-.75,.27-1.7,.46-2.86,.55-.48,.99-.98,1.86-1.49,2.62-.51,.75-1.14,1.4-1.87,1.94-.67,.48-1.4,.9-2.18,1.25-.78,.35-1.51,.56-2.18,.62-1.6,.19-2.87,.1-3.82-.26-.94-.37-1.66-.91-2.14-1.63s-.76-1.54-.84-2.47c-.08-.93-.06-1.86,.07-2.78,.13-.86,.38-1.96,.77-3.29,.38-1.33,.85-2.57,1.39-3.72,.58-1.22,1.15-2.18,1.73-2.9,.58-.72,1.17-1.27,1.78-1.66,.06-.06,.14-.1,.22-.12,.08-.02,.15-.06,.22-.12,.32-.64,.7-1.21,1.15-1.7,.45-.5,.9-.92,1.37-1.27,.46-.35,.92-.63,1.37-.84,.45-.21,.83-.34,1.15-.41,.74-.13,1.51-.18,2.33-.17,.82,.02,1.56,.2,2.23,.55,.67,.35,1.23,.91,1.68,1.68,.45,.77,.67,1.81,.67,3.12,0,1.38-.23,2.91-.7,4.61-.46,1.7-1.11,3.41-1.94,5.14,.86-.03,1.63-.29,2.3-.79,.67-.5,1.26-1.07,1.78-1.73,.51-.66,.93-1.3,1.25-1.94,.32-.64,.53-1.14,.62-1.49Zm-16.46,6.86c-.26,1.22-.25,2.2,.02,2.95,.27,.75,.7,1.18,1.3,1.3,.59,.11,1.3-.14,2.14-.74,.83-.61,1.68-1.68,2.54-3.22-1.34-.51-2.41-1.26-3.19-2.26-.78-.99-1.26-2.05-1.42-3.17-.06,.13-.14,.36-.24,.7-.1,.34-.19,.7-.29,1.08-.1,.38-.2,.75-.31,1.1-.11,.35-.18,.59-.22,.72-.06,.35-.13,.66-.19,.91-.06,.26-.11,.46-.14,.62Zm8.83-7.39c.45-1.82,.58-3.09,.38-3.79-.19-.7-.77-1.06-1.73-1.06-.35,0-.7,.07-1.06,.22-.35,.14-.69,.34-1.01,.6,.19,.26,.34,.51,.43,.77,.1,.26,.14,.43,.14,.53-.26-.06-.56-.09-.91-.07-.35,.02-.7,.17-1.06,.46-.1,.16-.26,.54-.48,1.15-.22,.61-.33,1.31-.31,2.11,.02,.8,.26,1.66,.74,2.57s1.39,1.75,2.74,2.52c.38-.74,.77-1.64,1.15-2.71,.38-1.07,.7-2.17,.96-3.29Z"/><g><path class="cls-1" d="M103.78,53.84c.25-.57,.91-1.01,1.54-1.02,.08,.01,.18,.05,.21,.15,.13,.31-.35,1.29-.43,1.64-.28,1.08-1.04,2.55-1.57,3.55-.57,1.15-1.46,2.34-2.71,2.98-1.24,.63-2.61,.86-3.91,.97l.41-.28c-.68,1.35-1.38,2.72-2.5,3.87-2.77,2.69-7.44,4.08-10.87,1.91-2.78-2-2.33-5.89-1.55-8.79,.91-3.66,2.21-7.61,5.43-9.92l-.09,.07c.11-.11,.28-.22,.47-.26-.02,0-.05,.02-.04,.02l-.09,.13c2.69-5.97,13.04-6.94,12.9,1.14-.07,3.48-1.12,6.93-2.79,9.96l-.37-.56c2.99-.04,4.99-3.04,5.97-5.56h0Zm0,0c-1.1,2.85-3.05,6.42-6.54,6.39l.24-.61c1.47-3.84,5.2-12.59-.6-14.3-2.03-.38-4.32,0-5.92,1.51-.84,.73-1.55,1.56-2.02,2.55-.13,.15-.31,.28-.53,.32,.02,0,.04-.02,.04-.02-3.56,2.22-6.81,11.76-5.16,15.61,.84,1.98,3.2,2.54,5.19,2.32,3.71-.23,6.55-2.89,7.95-6.21l.13-.26,.28-.02c2.51-.15,4.79-1.07,6.13-3.31l1.1-1.58c.47-.77,.87-1.74,1.26-2.58,.09-.23,.36-.69,0-.78-.6-.03-1.28,.42-1.53,.97h0Z"/><path class="cls-1" d="M87.32,60.71c-.22,.92,.06,1.95,.43,2.67,1.23,3.09,4.37-1.1,5.13-2.63l.26,.71c-1.22-.46-2.39-1.2-3.25-2.23-.85-1.01-1.48-2.25-1.67-3.59l.94,.15c-.31,.75-.39,1.68-.77,2.45-.43,.79-.88,1.57-1.07,2.46h0Zm0,0c.27-1.68,.06-2.94,.7-4.65l.25-.71,.94,.15c.33,2.31,2.1,4.24,4.29,5.03l.54,.21c-.57,1.02-1.16,2.03-1.95,2.93-1.4,1.75-4.46,2.95-5.25,0-.16-1.11,.33-2.03,.48-2.95h0Z"/><path class="cls-1" d="M96.15,53.31c.32-1.15,.14-2.84-.17-3.85-.54-.88-2.19-.46-2.92,.21l.09-.69c.36,.46,.57,1,.68,1.6l.15,.68c-.29-.06-.89-.25-1.2-.25-.44-.03-.74,.04-1.11,.34l.11-.13c-1.58,2.95-.46,6.17,2.51,7.66l-.69,.2,.61-1.43c.54-1.49,1.49-2.81,1.95-4.34h0Zm0,0c-.45,1.24-.17,2.74-.71,3.98-.31,.73-.86,2-1.17,2.73-3.09-1.44-5.1-4.72-3.87-8.1l.51-1.22,.02-.06c.35-.29,.75-.55,1.27-.62,.46-.04,.79-.03,1.23,.07l-.62,.49c-.12-.49-.44-.98-.77-1.39l.38-.3c1.15-1,3.53-1.5,4.44,.11,.7,1.48-.47,2.89-.72,4.31h0Z"/></g></g><g><path class="cls-1" d="M120.53,62.72c-.32,.61-.69,1.22-1.1,1.85s-.87,1.19-1.37,1.7c-.5,.51-1.04,.94-1.63,1.3-.59,.35-1.24,.54-1.94,.58-.58,.06-1.16-.13-1.75-.58-.59-.45-1-1.04-1.22-1.78-.06-.26-.17-.74-.31-1.44s-.18-1.44-.12-2.21c.03-.58,.1-1.17,.19-1.78,.1-.61,.21-1.17,.34-1.68s.24-.96,.34-1.34c.1-.38,.18-.66,.24-.82,.1-.22,.22-.54,.38-.94s.34-.84,.53-1.32l.58-1.44c.19-.48,.37-.91,.53-1.3-.67,.67-1.37,1.5-2.09,2.5-.72,.99-1.43,2.06-2.14,3.19-.7,1.14-1.38,2.3-2.04,3.48-.66,1.18-1.24,2.3-1.75,3.36-.16,.38-.34,.79-.53,1.22-.19,.43-.38,.84-.58,1.22-.19,.38-.36,.71-.5,.98-.14,.27-.26,.42-.36,.46-.1,.06-.3,.07-.6,.02-.3-.05-.63-.14-.98-.29-.35-.14-.67-.34-.96-.6-.29-.25-.46-.58-.53-.96-.06-.42-.06-.87,0-1.37,.06-.5,.18-1.26,.34-2.28,.06-.38,.18-.95,.36-1.7,.18-.75,.36-1.51,.55-2.28,.99-3.46,1.86-6.1,2.62-7.92,.75-1.82,1.38-3.06,1.9-3.7,.51-.7,1.16-1.15,1.94-1.34,.78-.19,1.53-.26,2.23-.19,.7,.06,1.26,.22,1.68,.46,.42,.24,.51,.46,.29,.65-.74,.61-1.4,1.4-1.99,2.38-.59,.98-1.14,2.03-1.63,3.17-.5,1.14-.94,2.27-1.34,3.41-.4,1.14-.78,2.18-1.13,3.14,.51-.86,1.1-1.78,1.78-2.74,1.34-1.76,2.51-3.27,3.5-4.54,.99-1.26,1.89-2.28,2.69-3.05,.22-.22,.49-.47,.79-.74,.3-.27,.62-.54,.96-.79,.34-.26,.69-.48,1.06-.67s.73-.32,1.08-.38c.45-.1,.78-.08,.98,.05,.21,.13,.47,.37,.79,.72,.16,.16,.29,.31,.38,.46,.1,.14,.13,.31,.1,.5-.03,.19-.13,.45-.29,.77-.16,.32-.4,.74-.72,1.25-.74,1.06-1.41,2.34-2.02,3.84-.16,.38-.34,.9-.53,1.56-.19,.66-.39,1.34-.6,2.06-.21,.72-.39,1.42-.55,2.11-.16,.69-.26,1.27-.29,1.75-.06,.77-.1,1.43-.12,1.99-.02,.56,0,1,.07,1.32,.06,.19,.14,.37,.22,.53,.08,.16,.2,.22,.36,.19,.26-.1,.58-.35,.98-.77,.4-.42,.84-1.02,1.32-1.82,.22-.35,.47-.59,.74-.72,.27-.13,.51-.16,.72-.1,.21,.06,.34,.22,.38,.46s-.02,.55-.22,.94Z"/><path class="cls-1" d="M120.53,62.72c-1.37,2.37-3.07,5.35-6.11,5.62-1.98,.14-3.3-1.82-3.53-3.56-.82-3.44,.27-7.07,1.56-10.25l1.28-3.18,.81,.55c-1.1,1.1-2.04,2.39-2.9,3.73-2.63,3.76-4.68,7.98-6.63,12.1-.31,.68-.84,.93-1.59,.72-.75-.2-1.57-.44-2.14-1.02-.89-.81-.74-2.1-.59-3.1,.23-1.87,.66-3.76,1.12-5.59,1.03-3.64,2.09-7.27,3.8-10.72,.45-.85,.95-1.76,1.86-2.4,1.55-.96,3.58-1.02,5.25-.38,.51,.19,1.31,.85,.74,1.5-3.37,3.1-4.41,7.84-6.05,11.99l-.9-.43c1.7-2.82,3.76-5.29,5.74-7.86,1.87-2.12,3.87-4.8,6.83-5.35,.46-.1,1.16,.21,1.46,.57,.45,.43,1.29,1.25,.95,2-1.09,2.42-2.79,4.45-3.44,7.04-.99,2.97-2.1,6.19-1.89,9.27l.17,.46c.06,.16,.1,.2,.23,.19,.9-.42,1.71-1.53,2.27-2.43,.7-1.3,2.58-1.18,1.69,.54h0Zm0,0c.86-1.71-.98-1.83-1.63-.51-.62,.99-1.19,2.05-2.26,2.65-.11,.03-.25,.02-.36-.06-.75-.88-.48-2.18-.51-3.21,.19-4.88,1.9-9.7,4.59-13.74,.17-.33,.27-.7,.21-.7-.19-.25-.72-.86-1.04-1.05-1.21-.13-2.27,.79-3.21,1.53-3.5,3.19-6.35,7.25-8.93,11.17l-.9-.43c1.67-4.22,2.77-9.1,6.24-12.3,0,0-.05,.07-.05,.16,0,.09,.03,.14,.03,.14,0-.02-.21-.16-.37-.23-1.33-.5-3.05-.45-4.27,.29-.65,.45-1.12,1.24-1.54,2.04-1.65,3.3-2.71,6.93-3.73,10.52-.45,1.82-.87,3.6-1.09,5.47-.14,.9-.21,1.83,.28,2.24,.48,.47,1.26,.71,1.92,.81,.07,.02,.18-.04,.04,.03l.12-.06c-.18,.09-.06,.04-.04-.01,.75-1.28,1.26-2.66,1.92-4,1.05-2.1,2.33-4.36,3.54-6.38,1.34-1.98,2.64-4.2,4.37-5.9l.81,.55-1.28,3.17c-.66,1.48-1.2,3.21-1.46,4.81-.46,2.13-.64,4.44,.1,6.49,.66,1.62,2.45,2.18,3.99,1.45,2.11-.93,3.41-2.99,4.52-4.92h0Z"/></g><g><path class="cls-1" d="M159.7,52.16c.06,0,.14,.06,.22,.17,.08,.11,.07,.31-.02,.6-.13,.45-.25,.78-.36,1.01-.11,.22-.26,.56-.46,1.01-.29,.64-.64,1.48-1.06,2.52-.42,1.04-.95,2.16-1.61,3.36-.66,1.2-1.46,2.45-2.4,3.74-.94,1.3-2.07,2.52-3.38,3.67-1.22,1.06-2.62,1.96-4.22,2.71-1.6,.75-3.21,1.19-4.82,1.32-1.62,.13-3.14-.11-4.58-.72-1.44-.61-2.61-1.73-3.5-3.36-.45-.83-.78-1.81-.98-2.93s-.31-2.46-.31-4.03c0-2.11,.3-4.15,.91-6.12,.61-1.97,1.41-4.06,2.4-6.26,1.02-2.02,2.16-3.98,3.41-5.9,1.25-1.92,2.69-3.71,4.32-5.38,1.34-1.34,2.64-2.37,3.89-3.07,1.25-.7,2.46-1.12,3.65-1.25,1.82-.19,3.39-.02,4.7,.5,1.31,.53,2.27,1.7,2.88,3.53,.06,.19,.14,.57,.24,1.13,.1,.56,.14,1.22,.12,1.97-.02,.75-.12,1.54-.31,2.38-.19,.83-.56,1.62-1.1,2.35-.42,.54-.86,.96-1.34,1.25-.48,.29-.95,.46-1.42,.53-.46,.06-.92,.04-1.37-.07-.45-.11-.83-.28-1.15-.5-.16-.13-.23-.25-.22-.36,.02-.11,.07-.22,.17-.31,.1-.1,.21-.18,.34-.24,.13-.06,.24-.11,.34-.14,.16-.03,.42-.23,.79-.6,.37-.37,.71-1.03,1.03-1.99,.74-2.21,.61-3.78-.38-4.7-.51-.45-1.38-.46-2.59-.05-1.22,.42-2.51,1.41-3.89,2.98-.51,.58-1,1.18-1.46,1.82-.46,.64-.94,1.38-1.44,2.23-.5,.85-1.02,1.84-1.56,2.98-.54,1.14-1.15,2.47-1.82,4.01-.71,1.54-1.3,3.24-1.78,5.11s-.72,3.58-.72,5.11c0,.8,.11,1.55,.34,2.26,.22,.7,.53,1.3,.91,1.8,.38,.5,.85,.87,1.39,1.13,.54,.26,1.15,.34,1.82,.24,1.15-.16,2.23-.48,3.24-.96,1.01-.48,1.92-1.02,2.74-1.63,.82-.61,1.52-1.21,2.11-1.8,.59-.59,1.05-1.08,1.37-1.46,.42-.51,.81-1.03,1.18-1.56,.37-.53,.75-1.1,1.15-1.7,.4-.61,.82-1.29,1.27-2.04,.45-.75,.96-1.62,1.54-2.62,.67-1.09,1.28-1.63,1.82-1.63Z"/><path class="cls-1" d="M159.7,52.16c.6,.21,.03,1.1-.05,1.49-1.06,2.57-2.1,5.14-3.32,7.65-3.37,6.86-10.99,13.59-19.1,10.88-4.75-1.65-5.76-7.35-5.52-11.75,.09-3.98,1.59-7.74,3.14-11.34,3.24-6.25,7.39-13.54,14.39-16.04,5.33-1.34,9.85,.62,9.97,6.6,.42,4.09-2.76,9.72-7.4,7.12-1.11-.7-.22-1.78,.73-2.01,1.25-.76,2.11-3.64,1.82-5.29-.31-1.53-1.42-1.58-2.77-1.07-1.98,.76-3.38,2.49-4.68,4.14-1.29,1.62-2.37,3.75-3.32,5.59-2.12,4.54-4.38,9.34-4.26,14.44,.69,8.2,8.9,3.32,12.37-.12,2.08-2.06,3.67-4.58,5.19-7.07,.8-1.11,1.31-2.93,2.81-3.23h0Zm0,0c-1.49,.33-1.96,2.15-2.74,3.27-1.49,2.53-2.91,5.17-4.89,7.37-3.93,4.6-12.79,9.16-13.74-.18-.14-5.31,2.16-10.23,4.35-14.92,.99-1.91,2.1-4.09,3.43-5.77,1.39-1.77,2.94-3.64,5.14-4.48,1.05-.42,2.85-.67,3.58,.61,1.27,2.07,.32,5-.96,6.84-.43,.39-.49,.59-1.13,.83l.06-.02c-.18,.07-.36,.17-.49,.28-.02,.03-.02,.03-.01,0,0-.04,0-.09-.01-.11-.04-.09,0,0,.08,.04,1.24,.81,2.91,.55,3.97-.5,2.21-2.22,2.32-6.01,1.23-8.8-1.23-3.18-5.16-3.33-8.05-2.62-6.21,2.22-9.94,8.53-13.03,14.03-1.9,3.88-3.62,8.08-3.78,12.43-.18,4.07,.56,9.24,4.87,10.77,7.57,2.41,14.82-3.97,18.47-10.1,1.47-2.66,2.77-5.44,3.86-8.28,.09-.24,.1-.62-.21-.7h0Z"/></g><g><path class="cls-1" d="M179.05,53.79c.13-.32,.3-.58,.53-.79,.22-.21,.45-.36,.67-.46,.22-.1,.4-.12,.53-.07,.13,.05,.14,.18,.05,.41-.06,.1-.18,.35-.34,.77-.16,.42-.36,.94-.6,1.56s-.53,1.34-.86,2.14-.71,1.63-1.13,2.5c-.03,.07-.12,.22-.26,.48-.14,.26-.3,.55-.46,.89-.16,.34-.34,.67-.53,1.01-.19,.34-.35,.62-.48,.84-.42,.67-.9,1.34-1.44,1.99-.54,.66-1.17,1.22-1.87,1.7-.19,.13-.44,.28-.74,.46-.3,.18-.62,.34-.96,.48-.34,.14-.68,.26-1.03,.34-.35,.08-.69,.09-1.01,.02-.99-.19-1.71-.66-2.16-1.39-.45-.74-.62-1.63-.53-2.69,0-.06,.04-.31,.12-.74,.08-.43,.17-.78,.26-1.03-.38,.74-.82,1.44-1.3,2.11-.48,.67-1,1.27-1.56,1.8-.56,.53-1.14,.96-1.75,1.3-.61,.34-1.22,.55-1.82,.65-.51,.06-1.05,.03-1.61-.1-.56-.13-1.08-.4-1.56-.82-.48-.42-.89-1-1.22-1.75s-.54-1.7-.6-2.86c-.06-1.38,.03-2.58,.29-3.62,.26-1.04,.61-2.06,1.06-3.05,.29-.64,.6-1.32,.94-2.04s.7-1.42,1.1-2.11c.4-.69,.82-1.34,1.27-1.97,.45-.62,.93-1.14,1.44-1.56,.96-.8,1.94-1.37,2.95-1.7s1.96-.47,2.86-.41c.9,.06,1.69,.31,2.38,.74,.69,.43,1.19,1.02,1.51,1.75l.34,.72c.26-.48,.5-.9,.72-1.25,.22-.35,.45-.66,.67-.91,.64-.64,1.34-.98,2.11-1.01,.77-.03,1.46,.06,2.06,.26,.61,.21,1.05,.46,1.32,.74,.27,.29,.25,.43-.07,.43-.29,0-.6,.21-.94,.62-.34,.42-.65,.9-.94,1.44-.29,.54-.55,1.09-.79,1.63-.24,.54-.42,.94-.55,1.2-1.25,2.69-2.14,4.7-2.66,6.05-.53,1.34-.86,2.22-.98,2.64-.1,.19-.19,.5-.29,.94s-.15,.86-.17,1.27c-.02,.42,.03,.76,.14,1.03,.11,.27,.33,.36,.65,.26,.29-.13,.58-.3,.89-.53,.3-.22,.62-.48,.94-.77,.32-.32,.64-.69,.96-1.1,.32-.42,.6-.82,.84-1.2s.45-.73,.62-1.03c.18-.3,.29-.5,.36-.6,.26-.45,.48-.86,.67-1.25,.19-.38,.37-.77,.53-1.15,.26-.58,.52-1.15,.79-1.73,.27-.58,.49-1.07,.65-1.49Zm-15.02,9.41c.26-.26,.59-.66,1.01-1.2,.42-.54,.86-1.2,1.34-1.97,.48-.77,.97-1.62,1.46-2.54,.5-.93,.94-1.92,1.32-2.98,.29-.77,.5-1.4,.62-1.9s.22-.9,.26-1.2c.05-.3,.06-.54,.02-.72-.03-.18-.06-.36-.1-.55-.13-.32-.35-.61-.67-.86-.32-.26-.74-.37-1.25-.34-.64,.06-1.42,.5-2.35,1.32-.93,.82-1.81,2.04-2.64,3.67-.96,1.82-1.64,3.39-2.04,4.7s-.55,2.53-.46,3.65c.06,.83,.23,1.38,.5,1.63,.27,.26,.52,.42,.74,.48,.19,.06,.47,.02,.84-.14,.37-.16,.82-.51,1.37-1.06Z"/><g><path class="cls-1" d="M179.05,53.79c.25-.64,.81-1.2,1.5-1.35,.31-.06,.46,.16,.31,.45-1.55,3.96-2.68,8.3-5.23,11.8-1.42,2.01-3.8,3.84-6.38,3.88-2.32-.18-3.63-2.55-3.31-4.65,.04-.35,.26-1.4,.41-1.91l.91,.41c-5.78,10.96-15.28,6.04-11.6-5.21,1.48-3.51,2.96-7.39,6.02-9.82,3.09-2.52,8.85-2.79,10.29,1.68l-.89-.02c.74-1.35,1.73-3.15,3.53-3.39,1.45-.16,2.93,.09,4.07,1.04,.6,.48,.56,1.35-.33,1.36-.55,.15-1.21,1.37-1.53,1.98-.78,1.54-1.84,3.96-2.55,5.59-.76,1.64-1.73,3.98-2.32,5.66-.27,.82-.51,1.9-.4,2.75,.01,.06,.03,.13,.05,.17,0,.03,.02,.04,0,.03-.05-.02-.03,.02,.08-.01l-.05,.02c1.55-.72,2.71-2.05,3.69-3.42,1.51-2.13,2.7-4.61,3.74-7.02h0Zm0,0c-1,2.27-2.1,5.12-3.37,7.24-.91,1.59-2.05,3.12-3.7,4.01-1.76,.53-1.52-1.99-1.3-3.04,.57-2,1.71-4.67,2.67-6.79,.74-1.69,1.75-4,2.58-5.65,.58-.97,1.09-2.34,2.41-2.52,.03,0,.07-.02-.04,.02-.04,.01-.18,.13-.2,.27-.02,.13,0,.18,.01,.2-.77-.81-2.26-1.03-3.35-.9-1.75,.3-2.39,2.31-3.29,3.7l-.42-.85c-1.19-3.86-6.14-3.46-8.79-1.3-2.88,2.31-4.27,6.04-5.68,9.35-1.02,3.07-1.5,7.83,1.68,9.72,2.57,1.15,5.13-.98,6.62-2.96,.53-.75,.97-1.56,1.47-2.33l.91,.41c-.58,1.76-.68,4.36,1.4,5.05,1.45,.53,2.77-.43,4.01-1.16,2.48-1.88,3.94-4.89,5.42-7.57,1.03-1.86,1.8-3.89,2.69-5.82,.04-.1,.09-.22,.05-.31-.05-.09-.19-.1-.29-.09-.67,.14-1.25,.69-1.5,1.32h0Z"/><path class="cls-1" d="M164.02,63.2c.74-.78,1.42-2.16,1.87-3.13,.45-1.14,1.15-2.13,1.7-3.19,.89-1.83,1.68-3.83,1.99-5.85,.03-.22-.08-.58-.11-.8l.03,.11c-.28-.7-1.08-1.1-1.81-.79-2.63,1.17-3.93,4.03-5.15,6.56-.81,1.77-1.5,3.61-1.51,5.49,.03,.65,.03,1.36,.21,1.96,.65,1.34,2.03,.42,2.77-.35h0Zm0,0c-.64,.59-1.3,1.45-2.27,1.41-.72-.11-1.37-.73-1.54-1.45-.62-2.56,.42-5.24,1.42-7.48,1.29-2.69,2.73-5.8,5.71-7.08,1.2-.5,2.66,.17,3.1,1.41,.17,.72,.16,1.35-.04,2.04-.75,3.01-1.99,5.96-3.89,8.42-.72,.8-1.81,1.93-2.51,2.73h0Z"/></g></g><g><path class="cls-1" d="M197.28,53.84c.13-.32,.32-.6,.58-.84,.26-.24,.5-.41,.72-.5,.22-.1,.4-.12,.53-.07,.13,.05,.14,.18,.05,.41-.54,1.15-1.06,2.4-1.56,3.74s-1.06,2.66-1.68,3.96-1.35,2.51-2.18,3.65c-.83,1.14-1.86,2.1-3.07,2.9-.38,.26-.85,.48-1.39,.67-.54,.19-1.09,.32-1.63,.38-.54,.06-1.02,0-1.42-.19-.4-.19-.78-.48-1.13-.86-.26-.25-.53-.62-.82-1.1-.29-.48-.56-1.02-.82-1.61-.26-.59-.47-1.23-.65-1.92-.18-.69-.28-1.35-.31-1.99-.06,.19-.18,.5-.36,.94s-.36,.93-.55,1.49c-.19,.56-.38,1.13-.58,1.7-.19,.58-.34,1.1-.43,1.58-.06,.7-.03,1.12,.1,1.25,.06,.07,.1,.14,.1,.24s-.05,.18-.14,.24c-.16,.16-.46,.25-.91,.26-.45,.02-.91-.04-1.39-.17-.48-.13-.92-.35-1.32-.67-.4-.32-.63-.77-.7-1.34-.06-.61,0-1.5,.22-2.66,.21-1.17,.49-2.42,.84-3.77,.35-1.34,.74-2.68,1.15-4.01,.42-1.33,.82-2.47,1.2-3.43,.8-2.24,1.65-4.42,2.54-6.55,.9-2.13,1.78-4.05,2.64-5.76,.86-1.71,1.67-3.17,2.42-4.37,.75-1.2,1.42-2.02,1.99-2.47,.25-.22,.58-.39,.98-.5,.4-.11,.73-.15,.98-.12,.51,.03,.96,.15,1.34,.36,.38,.21,.69,.44,.91,.7,.22,.26,.36,.49,.41,.7,.05,.21,0,.31-.17,.31-.22,0-.54,.3-.96,.89-.42,.59-.89,1.38-1.42,2.35-.53,.98-1.09,2.08-1.68,3.31-.59,1.23-1.18,2.49-1.75,3.77-.58,1.28-1.12,2.52-1.63,3.72-.51,1.2-.94,2.25-1.3,3.14-.1,.26-.22,.58-.38,.96-.16,.38-.34,.82-.53,1.3,.29-.58,.62-1.18,1.01-1.82,.38-.64,.79-1.26,1.22-1.85,.43-.59,.9-1.15,1.42-1.68,.51-.53,1.06-.98,1.63-1.37,1.06-.7,1.96-1.15,2.71-1.34,.75-.19,1.35-.19,1.8,0,.45,.19,.76,.53,.94,1.01,.17,.48,.25,1.06,.22,1.73-.06,.74-.19,1.54-.38,2.42-.19,.88-.51,1.74-.96,2.57-.54,1.06-1.1,1.9-1.66,2.54-.56,.64-1.34,1.22-2.33,1.73-.54,.26-1.09,.44-1.63,.55-.54,.11-1.09,.2-1.63,.26,.03,.77,.14,1.52,.34,2.26,.19,.74,.43,1.39,.72,1.97s.61,1.03,.96,1.37c.35,.34,.72,.5,1.1,.5,.67,0,1.33-.31,1.97-.94,.64-.62,1.24-1.36,1.8-2.21,.56-.85,1.06-1.71,1.51-2.59,.45-.88,.8-1.59,1.06-2.14,.29-.64,.54-1.2,.77-1.68,.22-.48,.42-.91,.58-1.3Zm-12.82,2.74c.86-.03,1.55-.18,2.06-.43,.51-.26,.99-.56,1.44-.91,.83-.61,1.5-1.3,2.02-2.09,.51-.78,.86-1.5,1.06-2.14,.22-.74,.33-1.33,.31-1.78-.02-.45-.06-.7-.12-.77-.16-.22-.4-.29-.72-.19-.32,.1-.68,.3-1.08,.6-.4,.3-.82,.72-1.25,1.25-.43,.53-.84,1.11-1.22,1.75-.32,.51-.71,1.22-1.18,2.11-.46,.9-.9,1.76-1.32,2.59Z"/><g><path class="cls-1" d="M197.28,53.84c.25-.64,.79-1.17,1.44-1.42,.15-.04,.38-.11,.5,.08,.06,.2-.06,.36-.11,.51-1.21,2.83-2.19,5.87-3.48,8.67-1.57,3.43-5.8,8.53-10.01,6.51-2.34-1.78-3.31-4.89-3.62-7.7l.97,.13c-.73,1.88-1.41,3.72-1.9,5.65v-.05c-.02,.29-.03,.59-.01,.81,0,.08,.06,.16-.02,.05,.35,.31,.28,1.02-.14,1.24l.08-.06c-.55,.45-.97,.38-1.37,.41-.81,0-1.6-.16-2.33-.55-2.07-.96-1.52-3.62-1.14-5.41,2.21-9.89,6.02-19.45,11.16-28.17,.84-1.27,2-2.68,3.7-2.71,1.47-.01,3.27,.84,3.45,2.45,0,.11-.05,.31-.22,.46-.17,.15-.34,.16-.45,.16,.05,0,.06-.02,.02,0-.16,.11-.4,.4-.58,.67-3.53,5.8-6.05,12.15-8.63,18.45l-.91-.41c1.81-3.48,4.34-7.14,8.35-8.33,.99-.33,2.6-.16,3.15,1,.51,1.01,.45,2.11,.25,3.16-.19,2.02-.93,3.99-2.04,5.66-1.4,2.44-4.11,3.78-6.85,3.99l.44-.52c1.51,13.19,8.12,.47,10.3-4.73h0Zm0,0c-1.03,2.43-2.12,4.82-3.43,7.11-.91,1.53-1.82,3.22-3.6,3.93-2.89,.8-4.16-4.16-4.28-6.28l-.02-.44c.76-.16,1.58-.25,2.32-.4,4.3-1.12,6.39-6.15,6.25-10.25-.14-1.3-1.08-1.61-2.26-1.27-3.64,1.1-5.98,4.51-7.7,7.81l-.91-.41c2.14-5.34,4.4-10.67,7.07-15.81,.8-1.31,1.3-2.66,2.52-3.77,.51,.47-.05-.44-.5-.71-.76-.56-1.73-.69-2.6-.34-.88,.39-1.46,1.27-2.03,2.07-1.47,2.42-2.85,4.95-3.99,7.56-2.95,6.5-5.56,13.24-7.01,20.24-.56,2.62-.88,4.66,2.47,4.78,.3,.01,.67-.08,.67-.12l.08-.06s-.05,.04-.07,.12c-.01,.09,0,.07,.01,.13,0,0,.05,.07,0,0-.17-.18-.2-.41-.23-.59-.04-.4-.01-.72,.02-1.07,.48-1.93,1.23-3.96,1.94-5.77l.97,.13c.12,1.97,.9,3.89,1.89,5.58,1.21,2.01,2.8,1.9,4.77,1.05,4.99-2.49,6.78-8.37,9-13.12,.07-.24,.6-1.2,.53-1.42-.07-.13-.29-.11-.44-.06-.64,.23-1.19,.75-1.45,1.38h0Z"/><path class="cls-1" d="M184.47,56.58c3.21-.91,6.53-4.19,6.36-7.71l-.02-.14s-.07-.1,.07,.08l-.05-.06c-.09-.09-.45,.11-.62,.2-1.91,1.2-2.91,3.44-4.02,5.33-.5,.63-1.12,1.34-1.72,2.3h0Zm0,0c.62-2.6,2.1-5.53,4.03-7.55,.72-.77,2.41-1.88,3.09-.91,.31,.44,.21,.62,.26,1.05-.09,3.57-3.46,8.19-7.39,7.42h0Z"/></g></g><g><path class="cls-1" d="M215.43,53.79c.13-.32,.33-.6,.6-.84,.27-.24,.53-.42,.77-.53,.24-.11,.43-.15,.58-.12,.14,.03,.17,.16,.07,.38-.06,.16-.25,.65-.55,1.46-.3,.82-.7,1.78-1.18,2.9-.22,.48-.55,1.18-.98,2.11-.43,.93-.92,1.84-1.46,2.74-.42,.67-.82,1.27-1.2,1.8-.38,.53-.79,.99-1.22,1.39-.43,.4-.91,.77-1.44,1.1s-1.13,.67-1.8,.98c-.83,.38-1.72,.65-2.66,.79-.94,.14-1.88,.18-2.81,.12-.77,.03-1.51-.1-2.23-.38s-1.37-.69-1.94-1.2-1.06-1.12-1.44-1.82c-.38-.7-.62-1.47-.72-2.3-.19-1.82-.13-3.47,.19-4.94,.32-1.47,.78-2.78,1.39-3.94,.86-1.66,1.78-2.94,2.74-3.84,.96-.9,1.86-1.62,2.69-2.16,1.12-.77,2.21-1.27,3.29-1.51,1.07-.24,1.99-.39,2.76-.46,.54-.03,1.1,.06,1.66,.26,.56,.21,1.06,.51,1.51,.91,.45,.4,.79,.91,1.03,1.54,.24,.62,.31,1.32,.22,2.09-.06,.58-.18,1.15-.36,1.73-.18,.58-.44,1.15-.79,1.73-.35,.58-.82,1.16-1.42,1.75s-1.34,1.18-2.23,1.75c-.7,.45-1.42,.78-2.16,.98-.74,.21-1.43,.34-2.09,.38-.66,.05-1.22,.04-1.7-.02-.48-.06-.83-.14-1.06-.24-.03,.1-.1,.33-.19,.7-.1,.37-.16,.78-.19,1.25-.03,.46-.02,.95,.05,1.46s.22,.96,.48,1.34c1.09,1.5,2.9,1.86,5.42,1.06,1.09-.35,2.24-1.18,3.46-2.47,1.22-1.3,2.43-3.06,3.65-5.3,.32-.58,.58-1.08,.77-1.51,.19-.43,.37-.81,.53-1.13Zm-6.53-5.18c-.29,.06-.72,.24-1.3,.53-.58,.29-1.21,.74-1.9,1.34-.69,.61-1.38,1.4-2.06,2.38-.69,.98-1.27,2.15-1.75,3.53,.8,.1,1.56,.03,2.28-.19,.72-.22,1.38-.53,1.97-.91,.59-.38,1.12-.82,1.58-1.3,.46-.48,.86-.94,1.18-1.39,.42-.58,.74-1.13,.98-1.66,.24-.53,.38-.98,.41-1.34,.03-.37-.06-.65-.29-.84s-.59-.24-1.1-.14Z"/><g><path class="cls-1" d="M215.43,53.79c.32-.75,1.06-1.41,1.87-1.53,.42,0,.15,.5,.09,.72-1.71,4.65-3.02,10.07-7.15,13.21-4.13,3.19-11.6,3.89-14.24-1.43-3.12-8.01,3-18.45,11.55-19.52l.9-.15c1.61-.29,3.33,.48,4.37,1.73,1.31,1.56,1.12,3.73,.52,5.53-1.78,4.69-7.15,7.89-12.08,6.5l.67-.3c-1.55,5.07,1.79,6.83,6.14,4.65,3.38-2.11,5.69-5.84,7.36-9.42h0Zm0,0c-2.02,4.04-3.89,9.01-8.35,10.93-5.35,1.7-7.71-2.09-5.94-6.96,2.12,.84,4.91,.4,6.88-.78,2.86-1.66,5.26-4.79,4.69-8.15-.51-2.19-2.96-3.25-5.03-2.6-7.9,.99-13.57,10.69-10.8,18.07,.98,1.97,3.11,3.4,5.28,3.29,3.22,.29,6.4-1,8.69-3.21,2.82-3.48,4.87-7.67,6.59-11.82,.05-.13,0-.25-.15-.24-.8,.08-1.55,.74-1.87,1.47h0Z"/><path class="cls-1" d="M208.9,48.61c-.89,.24-1.56,.94-2.13,1.58-1.99,1.69-3.59,3.84-4.4,6.36l-.41-.66c1.06,.14,2.08-.09,3.07-.56,1.93-.93,3.49-2.72,4.42-4.64,.19-.49,.55-.94,.61-1.41,.09-.61-.66-.81-1.15-.67h0Zm0,0c1.2-.34,1.85,.41,1.7,1.59-.08,.93-.66,1.72-1.14,2.47-1.73,2.42-4.45,4.61-7.62,4.21l-.61-.09,.2-.57c.92-2.6,2.5-5.2,4.81-6.75,.83-.43,1.79-.6,2.67-.87h0Z"/></g></g><g><path class="cls-1" d="M222.87,65.94c-.64,.8-1.5,1.42-2.59,1.85s-2.35,.54-3.79,.31c-1.02-.16-1.87-.59-2.54-1.3-.67-.7-.99-1.68-.96-2.93,0-.51,.13-.98,.38-1.42,.26-.43,.58-.81,.96-1.13,.22-.19,.5-.35,.84-.48,.34-.13,.67-.22,1.01-.26s.64-.03,.91,.05c.27,.08,.44,.22,.5,.41-.26,.06-.46,.22-.6,.48-.14,.26-.23,.51-.26,.77-.03,.22-.03,.49,0,.79,.03,.3,.12,.59,.26,.86,.14,.27,.37,.49,.67,.65s.71,.19,1.22,.1c.58-.06,.98-.33,1.2-.79,.22-.46,.37-.89,.43-1.27,.13-.83,.11-1.67-.05-2.52-.16-.85-.38-1.7-.65-2.54-.27-.85-.53-1.7-.77-2.57-.24-.86-.36-1.71-.36-2.54,0-.54,0-1,.02-1.37,.02-.37,.1-.78,.26-1.22-.26,.35-.51,.78-.77,1.27-.26,.5-.51,1.02-.77,1.56-.29,.48-.57,1.06-.84,1.75-.27,.69-.62,1.5-1.03,2.42l-1.34-.14c.03-.1,.06-.18,.1-.26,.03-.08,.06-.15,.1-.22,.45-1.25,.98-2.54,1.58-3.89,.61-1.34,1.23-2.51,1.87-3.5,.77-1.15,1.7-2.02,2.81-2.59,1.1-.58,2.14-.93,3.1-1.06,.99-.13,1.86-.18,2.62-.17s1.4,.33,1.94,.94c.16,.19,.27,.46,.34,.79,.06,.34,.09,.64,.07,.91-.02,.27-.05,.48-.1,.62s-.12,.14-.22-.02c-.1-.13-.29-.2-.58-.22-.29-.02-.61,.02-.96,.12-.35,.1-.73,.23-1.13,.41-.4,.18-.74,.38-1.03,.6-.54,.45-.93,1.05-1.15,1.8-.22,.75-.26,1.9-.1,3.43,.06,.61,.18,1.22,.34,1.82,.16,.61,.32,1.21,.48,1.8,.16,.59,.29,1.18,.38,1.75s.13,1.15,.1,1.73c-.1,.93-.3,1.74-.62,2.42-.32,.69-.75,1.35-1.3,1.99Z"/><path class="cls-1" d="M222.87,65.94c-2.43,3.28-9.66,3.72-10.36-1.19-.35-1.84,.85-3.89,2.66-4.41,.93-.27,2.35-.63,2.89,.55l.17,.5c-.2,.07-.66,.11-.77,.33-.41,.68-.36,1.95,.36,2.39,.24,.17,.62,.16,1.02,.09,1.18-.14,1.22-1.76,1.27-2.68-.01-1.65-.87-4.03-1.31-5.65-.62-1.94-.89-4.19-.28-6.17l.88,.46c-.26,.44-.53,.86-.78,1.32-.93,1.82-1.94,4.03-2.71,5.93-.6-.06-1.73-.18-2.33-.25,1.1-2.85,2.3-6.25,4.16-8.94,2.08-2.95,6.06-4,9.48-3.56,.56,.16,1.05,.49,1.42,.89,.67,.76,.64,1.59,.58,2.46-.06,.28-.03,.58-.3,.79-.26,.24-.71,.06-.8-.11-.04-.06-.14-.19-.07-.09-1.16-.09-3.19,.7-3.74,1.96-1.27,3.3,.72,7,.66,10.45-.08,1.87-.9,3.6-2.09,4.96h0Zm0,0c2.91-3.2,1.52-6.55,.41-10.19-1.07-4.04-.26-7.82,4.55-8.19,.25,0,.73,.04,1.04,.47-.13-.17-.55-.18-.68,.08-.02,.04-.02,.05-.01,.01,.09-.56,.1-1.51-.28-1.89-.57-.66-1.44-.76-2.25-.64-1.86,.02-3.64,.38-5.2,1.39-3.08,2.08-4.11,6.19-5.56,9.44-.07,.15-.13,.3-.19,.47l-.42-.65,1.34,.14-.51,.29c.48-1.17,1.39-3.24,1.88-4.18,.42-.89,1.04-2.1,1.58-2.91l.87,.46c-.39,1.12-.28,2.52-.16,3.69,.3,1.68,1.15,3.93,1.53,5.73,.5,1.86,.6,5.38-1.88,5.74-.29,.06-1.15,.14-1.65-.23-1.23-.77-1.38-2.64-.66-3.8,.17-.27,.5-.52,.84-.6l-.35,.64c.08,.02-.26-.17-.58-.14-.32-.02-.69,.15-1.04,.22-.72,.19-1.22,.72-1.62,1.31-2.32,5.6,6.07,7.2,9,3.35h0Z"/></g><path class="cls-1" d="M83.15,34.18c-2.88,1.43-4.05,5.94-1.44,8.06,4.06,2.99,7.75-3.3,3.39-5.53-.67-.29-1.42-.24-2.03,.14-1.99,1-1.18,5.08,1.3,3.9,1.29-.61,1.34-2.81-.3-2.86-.8,.04-1.37,.97-.84,1.69-.82-.7-.27-1.99,.74-2.23,1.04-.28,2.2,.52,2.37,1.66,.18,2.32-2.76,3.91-4.48,2.27-.79-.77-.99-1.85-.88-2.81,.51-3.67,5.14-3.81,6.6-.7,2.08,4.14-2.86,8.2-6.49,5.26-3.32-2.48-1.65-7.93,2.07-8.84h0Z"/><path class="cls-2" d="M85.11,32.58c-.01-.1,.06-.16,.09-.24,.04-.1,.02-.14-.09-.13-.09,0-.17,.06-.26,.03-.03-.08,.03-.14,.06-.2,.02-.05,.06-.09-.03-.14-.06-.04,.01-.1,.05-.14,.2-.24,.37-.49,.56-.74,.36-.49,.74-.98,1.11-1.46,.56-.74,1.1-1.49,1.61-2.27,.43-.65,.88-1.29,1.33-1.93,.47-.68,.94-1.36,1.41-2.03,.57-.8,1.14-1.59,1.72-2.38,.56-.76,1.13-1.51,1.71-2.26,.76-.98,1.54-1.94,2.35-2.87,.59-.68,1.2-1.34,1.86-1.95,.52-.48,1.07-.92,1.68-1.29,.39-.24,.77-.48,1.18-.7,.85-.46,1.74-.84,2.67-1.11,.64-.19,1.3-.33,1.97-.4,.84-.08,1.68-.08,2.51,.1,.9,.19,1.74,.51,2.48,1.07,.04,.03,.09,.06,.13,.09,.08,.06,.15,.07,.24,0,.09-.07,.18-.12,.28-.18,.31-.2,.54-.46,.72-.79,.4-.73,.82-1.45,1.22-2.18,.48-.89,.95-1.78,1.44-2.66,.47-.85,.94-1.69,1.43-2.52,.43-.72,.89-1.43,1.39-2.1,.03-.04,.06-.08,.09-.12,.05-.06,.1-.06,.16-.02,.29,.21,.61,.36,.92,.53,.19,.11,.34,.26,.48,.42,.38,.43,.56,.94,.63,1.5,.1,.8,.54,1.39,1.26,1.76,.31,.16,.62,.31,.86,.57,.38,.42,.64,.89,.69,1.47,.08,.86,.52,1.5,1.3,1.9,.12,.06,.25,.14,.37,.2,.49,.25,.78,.69,1.01,1.16,.07,.14,.06,.18-.09,.23-.65,.2-1.31,.41-1.97,.57-.39,.09-.77,.18-1.16,.27-1.16,.26-2.33,.47-3.49,.68-.51,.1-1.01,.18-1.52,.27-1.18,.21-2.36,.44-3.53,.7-.08,.02-.15,.05-.22,.1-.21,.15-.41,.31-.62,.46-.1,.07-.12,.14-.08,.26,.22,.64,.33,1.3,.32,1.98,0,.55-.07,1.1-.2,1.64-.08,.34-.17,.67-.29,1-.3,.79-.68,1.53-1.16,2.23-.29,.42-.59,.83-.92,1.21-.49,.58-1.03,1.11-1.61,1.6-.3,.25-.6,.49-.91,.73-.6,.47-1.27,.83-1.95,1.17-.32,.16-.64,.31-.96,.45-1.16,.53-2.35,.98-3.55,1.43-.93,.35-1.87,.67-2.82,.98-.73,.24-1.45,.49-2.18,.72-1.2,.37-2.39,.74-3.6,1.09-1.03,.3-2.07,.58-3.11,.88-.37,.11-.74,.24-1.11,.36-1.1,.37-2.2,.73-3.29,1.1-.08,.03-.16,.09-.22-.03-.02-.04-.08,0-.13,0-.06,0-.12,.03-.17-.02Z"/></svg>